<svg width="158" height="51" viewBox="0 0 158 51" fill="none" xmlns="http://www.w3.org/2000/svg">
<g clip-path="url(#clip0)">
<path d="M60.7449 13.6126L52.4043 35.6444H42.49C39.736 35.6444 37.0607 35.4084 34.3854 34.9363C31.7888 34.4642 29.4282 33.5986 27.3037 32.3397C25.1792 31.0807 23.5268 29.4283 22.2678 27.3825C21.0089 25.258 20.3794 22.6614 20.3794 19.4353C20.3794 17.3108 20.8515 15.1076 21.7957 12.8257C22.74 10.5438 23.9989 8.49803 25.5726 6.60958C27.1463 4.72113 29.0348 3.22611 31.0806 2.04583C33.2051 0.865555 35.4083 0.314758 37.7688 0.314758H65.3087C64.0497 1.96715 62.7121 3.61954 61.3744 5.11456C60.0368 6.60958 58.6204 8.02591 57.0467 9.36356H39.736C39.0278 9.36356 38.3196 9.52093 37.6902 9.91436C37.0607 10.3078 36.4312 10.7799 35.8804 11.4094C35.3296 12.0389 34.8575 12.747 34.3854 13.5339C33.9133 14.3207 33.5985 15.1076 33.2838 15.8158C32.8903 16.996 32.733 17.8616 32.733 18.5697C32.733 19.4353 32.969 20.3008 33.3625 21.245C33.7559 22.1893 34.3067 23.0548 35.0149 23.8417C35.723 24.6285 36.4312 25.3367 37.2967 25.8088C38.0836 26.3596 38.9491 26.5956 39.736 26.5956H43.6702L45.2439 22.2679H37.6902V22.1893C37.7688 22.0319 38.0049 21.6385 38.5557 20.8516C39.0278 20.1434 39.6573 19.2779 40.3654 18.4124C41.0736 17.4681 41.8605 16.6026 42.5686 15.6584C43.3555 14.7142 44.0637 14.0847 44.6931 13.5339H60.7449V13.6126Z" fill="#003063"/>
<path d="M28.6413 49.7291C27.5398 50.2799 26.3595 50.5947 25.0218 50.5947C24.3137 50.5947 23.6842 50.516 23.1334 50.2799C22.5826 50.0439 22.1105 49.7291 21.6384 49.3357C21.2449 48.9423 20.9302 48.4702 20.6941 47.9194C20.4581 47.3686 20.3794 46.7391 20.3794 46.0309C20.3794 45.3228 20.4581 44.6933 20.6941 44.1425C20.9302 43.5917 21.2449 43.0409 21.6384 42.6475C22.0318 42.254 22.5039 41.9393 23.1334 41.7032C23.6842 41.4672 24.3137 41.3885 25.0218 41.3885C25.73 41.3885 26.2808 41.4672 26.9103 41.6245C27.4611 41.7819 28.0119 42.0967 28.484 42.4901L27.3037 43.6704C26.989 43.4343 26.6742 43.1983 26.2808 43.0409C25.8874 42.8835 25.4939 42.8048 25.0218 42.8048C24.5497 42.8048 24.1563 42.8835 23.7629 43.0409C23.3694 43.1983 23.0547 43.4343 22.8186 43.749C22.5826 44.0638 22.3465 44.3785 22.1892 44.772C22.0318 45.1654 21.9531 45.5588 21.9531 46.0309C21.9531 46.503 22.0318 46.8965 22.1892 47.3686C22.3465 47.762 22.5039 48.0767 22.8186 48.3915C23.0547 48.7062 23.3694 48.9423 23.7629 49.0996C24.1563 49.257 24.5497 49.3357 25.0218 49.3357C25.4153 49.3357 25.8087 49.3357 26.1234 49.257C26.4382 49.1783 26.7529 49.0996 27.0676 48.9423V46.8965H25.2579V45.4801H28.6413V49.7291Z" fill="#003063"/>
<path d="M30.4512 41.6246H36.2739V43.0409H32.0249V45.1654H36.0378V46.5817H32.0249V48.9423H36.5099V50.3586H30.4512V41.6246Z" fill="#003063"/>
<path d="M38.0835 41.6246H40.1293L44.3783 48.1554V41.6246H45.952V50.3586H43.9849L39.6572 43.6704V50.3586H38.0835V41.6246Z" fill="#003063"/>
<path d="M47.9194 41.6246H53.7421V43.0409H49.4931V45.1654H53.5061V46.5817H49.4931V48.9423H53.9782V50.3586H47.9194V41.6246V41.6246Z" fill="#003063"/>
<path d="M55.4731 41.6246H58.5419C58.9353 41.6246 59.4074 41.7033 59.8008 41.7819C60.1943 41.8606 60.509 42.018 60.8237 42.1754C61.1385 42.3327 61.3745 42.6475 61.5319 42.9622C61.6893 43.277 61.768 43.6704 61.768 44.2212C61.768 44.8507 61.6106 45.4015 61.2172 45.7949C60.9024 46.1883 60.3516 46.5031 59.7222 46.5817L62.0827 50.4373H60.1943L58.1484 46.7391H57.0469V50.3586H55.4731V41.6246V41.6246ZM58.2271 45.3228C58.4632 45.3228 58.6992 45.3228 58.9353 45.3228C59.1714 45.3228 59.3287 45.2441 59.5648 45.1654C59.7221 45.0867 59.8795 44.9294 60.0369 44.772C60.1156 44.6146 60.1943 44.3786 60.1943 44.0638C60.1943 43.8278 60.1156 43.5917 60.0369 43.4343C59.9582 43.277 59.8008 43.1983 59.6435 43.1196C59.4861 43.0409 59.25 42.9622 59.0927 42.9622C58.8566 42.9622 58.6992 42.9622 58.4632 42.9622H57.1255V45.3228H58.2271Z" fill="#003063"/>
<path d="M66.0957 41.6246H67.4333L71.2889 50.3586H69.4791L68.6923 48.3915H64.9154L64.1285 50.3586H62.3975L66.0957 41.6246ZM68.1415 46.9752L66.8038 43.4343L65.4662 46.9752H68.1415Z" fill="#003063"/>
<path d="M72.2329 41.6246H73.8066V49.021H77.5048V50.3586H72.2329V41.6246Z" fill="#003063"/>
<path d="M85.1372 41.6246H86.4749L90.2518 50.3586H88.442L87.6552 48.3915H83.8783L83.0914 50.3586H81.3604L85.1372 41.6246ZM87.1044 46.9752L85.7667 43.4343L84.4291 46.9752H87.1044Z" fill="#003063"/>
<path d="M98.2778 47.1325C98.2778 47.6833 98.1991 48.1554 98.0418 48.5488C97.8844 48.9423 97.6483 49.3357 97.3336 49.6504C97.0189 49.9652 96.6254 50.2012 96.232 50.3586C95.8386 50.516 95.3665 50.5946 94.8157 50.5946C94.3436 50.5946 93.8714 50.516 93.3993 50.3586C93.0059 50.2012 92.6125 49.9652 92.2977 49.6504C91.983 49.3357 91.7469 49.0209 91.5896 48.5488C91.4322 48.0767 91.3535 47.6833 91.3535 47.1325V41.5458H92.9272V47.0538C92.9272 47.2899 92.9272 47.5259 93.0059 47.762C93.0846 47.998 93.1633 48.2341 93.3206 48.3915C93.478 48.5488 93.7141 48.7849 93.9501 48.8636C94.1862 49.0209 94.5009 49.0209 94.8944 49.0209C95.2878 49.0209 95.6025 48.9422 95.8386 48.8636C96.0746 48.7062 96.3107 48.5488 96.4681 48.3915C96.6254 48.2341 96.7041 47.998 96.7828 47.762C96.8615 47.5259 96.8615 47.2899 96.8615 47.0538V41.5458H98.4352V47.1325H98.2778Z" fill="#003063"/>
<path d="M101.976 42.9622H99.3008V41.5458H106.225V42.9622H103.55V50.3586H101.976V42.9622Z" fill="#003063"/>
<path d="M106.854 46.0309C106.854 45.3228 106.933 44.6933 107.169 44.1425C107.405 43.5917 107.72 43.0409 108.113 42.6475C108.507 42.254 108.979 41.9393 109.608 41.7032C110.159 41.4672 110.789 41.3885 111.497 41.3885C112.205 41.3885 112.835 41.4672 113.385 41.7032C113.936 41.9393 114.408 42.254 114.88 42.6475C115.274 43.0409 115.589 43.513 115.825 44.1425C116.061 44.6933 116.139 45.3228 116.139 46.0309C116.139 46.7391 116.061 47.3686 115.825 47.9194C115.589 48.4702 115.274 48.9423 114.88 49.3357C114.487 49.7291 113.936 50.0439 113.385 50.2799C112.835 50.516 112.205 50.5947 111.497 50.5947C110.789 50.5947 110.159 50.516 109.608 50.2799C109.058 50.0439 108.586 49.7291 108.113 49.3357C107.72 48.9423 107.405 48.4702 107.169 47.9194C106.933 47.2899 106.854 46.6604 106.854 46.0309ZM108.507 45.8735C108.507 46.3457 108.586 46.7391 108.743 47.2112C108.9 47.6046 109.058 47.9194 109.372 48.2341C109.608 48.5488 109.923 48.7849 110.317 48.9423C110.71 49.0996 111.103 49.1783 111.576 49.1783C112.048 49.1783 112.441 49.0996 112.835 48.9423C113.228 48.7849 113.543 48.5488 113.779 48.2341C114.015 47.9194 114.251 47.6046 114.408 47.2112C114.566 46.8178 114.644 46.3457 114.644 45.8735C114.644 45.4014 114.566 45.008 114.408 44.6146C114.251 44.2212 114.094 43.9064 113.779 43.5917C113.543 43.2769 113.228 43.1196 112.835 42.8835C112.441 42.7261 112.048 42.6475 111.576 42.6475C111.103 42.6475 110.71 42.7261 110.317 42.8835C109.923 43.0409 109.608 43.2769 109.372 43.5917C109.136 43.9064 108.9 44.2212 108.743 44.6146C108.586 45.0867 108.507 45.4801 108.507 45.8735Z" fill="#003063"/>
<path d="M121.333 41.6246H124.244C124.637 41.6246 125.109 41.7033 125.503 41.7819C125.896 41.8606 126.211 42.018 126.526 42.1754C126.841 42.3327 127.077 42.6475 127.234 42.9622C127.391 43.277 127.47 43.6704 127.47 44.2212C127.47 44.772 127.391 45.2441 127.155 45.5588C126.998 45.8736 126.683 46.1883 126.368 46.3457C126.054 46.5031 125.66 46.6604 125.267 46.7391C124.873 46.8178 124.401 46.8178 123.929 46.8178H122.828V50.3586H121.254V41.6246H121.333ZM123.772 45.4015C124.008 45.4015 124.244 45.4015 124.48 45.4015C124.716 45.4015 124.952 45.3228 125.109 45.2441C125.346 45.1654 125.503 45.008 125.582 44.8507C125.739 44.6933 125.739 44.4572 125.739 44.1425C125.739 43.9064 125.66 43.6704 125.582 43.513C125.503 43.3556 125.346 43.1983 125.109 43.1196C124.952 43.0409 124.716 42.9622 124.48 42.9622C124.244 42.9622 124.008 42.9622 123.851 42.9622H122.749V45.4015H123.772Z" fill="#003063"/>
<path d="M130.775 41.6246H132.113L135.889 50.3586H134.08L133.293 48.3915H129.516L128.729 50.3586H126.998L130.775 41.6246ZM132.742 46.9752L131.404 43.4343L130.067 46.9752H132.742Z" fill="#003063"/>
<path d="M136.912 41.6246H139.981C140.374 41.6246 140.846 41.7033 141.161 41.7819C141.555 41.8606 141.869 42.018 142.184 42.1754C142.499 42.3327 142.735 42.6475 142.892 42.9622C143.05 43.277 143.128 43.6704 143.128 44.2212C143.128 44.8507 142.971 45.4015 142.577 45.7949C142.263 46.1883 141.712 46.5031 141.082 46.5817L143.443 50.4373H141.633L139.587 46.7391H138.486V50.3586H136.912V41.6246ZM139.666 45.3228C139.902 45.3228 140.138 45.3228 140.374 45.3228C140.61 45.3228 140.768 45.2441 141.004 45.1654C141.161 45.0867 141.318 44.9294 141.476 44.772C141.633 44.6146 141.633 44.3786 141.633 44.0638C141.633 43.8278 141.555 43.5917 141.476 43.4343C141.397 43.277 141.24 43.1983 141.082 43.1196C140.925 43.0409 140.689 42.9622 140.532 42.9622C140.296 42.9622 140.138 42.9622 139.902 42.9622H138.486V45.3228H139.666Z" fill="#003063"/>
<path d="M146.276 42.9622H143.601V41.5458H150.525V42.9622H147.85V50.3586H146.276V42.9622Z" fill="#003063"/>
<path d="M155.876 43.4343C155.718 43.1982 155.482 43.0409 155.246 42.8835C154.931 42.8048 154.695 42.7261 154.381 42.7261C154.223 42.7261 153.987 42.7261 153.83 42.8048C153.672 42.8835 153.515 42.8835 153.358 43.0409C153.2 43.1195 153.122 43.2769 153.043 43.3556C152.964 43.513 152.886 43.6703 152.886 43.9064C152.886 44.2211 152.964 44.4572 153.2 44.6146C153.436 44.7719 153.672 44.9293 153.987 45.008C154.302 45.0867 154.617 45.244 155.01 45.3227C155.403 45.4014 155.718 45.5588 156.033 45.7948C156.348 45.9522 156.584 46.267 156.82 46.5817C157.056 46.8964 157.135 47.2899 157.135 47.8407C157.135 48.3128 157.056 48.7062 156.898 49.0996C156.741 49.4144 156.505 49.7291 156.19 49.9652C155.876 50.2012 155.561 50.3586 155.167 50.516C154.774 50.5946 154.381 50.6733 153.908 50.6733C153.358 50.6733 152.807 50.5946 152.335 50.4373C151.863 50.2799 151.39 49.9652 150.997 49.493L152.177 48.3915C152.335 48.7062 152.649 48.9423 152.964 49.0996C153.279 49.257 153.594 49.3357 153.987 49.3357C154.144 49.3357 154.381 49.3357 154.538 49.257C154.695 49.1783 154.853 49.0996 155.01 49.0209C155.167 48.9423 155.246 48.7849 155.403 48.6275C155.482 48.4701 155.561 48.3128 155.561 48.0767C155.561 47.762 155.482 47.5259 155.246 47.3685C155.01 47.2112 154.774 47.0538 154.459 46.8964C154.144 46.7391 153.83 46.6604 153.436 46.5817C153.043 46.503 152.728 46.3456 152.413 46.1096C152.099 45.9522 151.863 45.6375 151.627 45.4014C151.39 45.0867 151.312 44.6932 151.312 44.1425C151.312 43.6703 151.39 43.2769 151.627 42.9622C151.784 42.6474 152.02 42.3327 152.335 42.1753C152.649 41.9393 152.964 41.7819 153.358 41.7032C153.751 41.6245 154.144 41.5458 154.538 41.5458C155.01 41.5458 155.482 41.6245 155.876 41.7819C156.348 41.9393 156.662 42.1753 157.056 42.4901L155.876 43.4343Z" fill="#003063"/>
<path d="M16.4455 11.0946C16.4455 11.1733 16.4455 11.252 16.4455 11.3307C17.075 11.252 17.7045 11.252 18.2553 11.1733C18.4127 10.9373 18.57 10.7012 18.7274 10.4651C15.2653 10.7799 11.7244 11.0946 8.26228 11.4094C8.26228 15.265 8.26228 19.1992 8.18359 23.0548C8.34096 22.3466 8.57702 21.6385 8.73439 20.9303C8.73439 17.9402 8.81308 14.9502 8.81308 11.9602C9.44256 11.8815 10.072 11.8815 10.7015 11.8028V11.7241C10.9376 11.6454 11.1736 11.5667 11.331 11.5667C11.331 11.6454 11.331 11.7241 11.331 11.8028C11.9605 11.7241 12.59 11.7241 13.2195 11.6454C13.2195 11.5667 13.2195 11.5667 13.2195 11.4881C13.4555 11.4094 13.6916 11.3307 13.8489 11.3307C13.8489 11.4094 13.8489 11.4881 13.8489 11.6454C14.3997 11.5667 15.0292 11.5667 15.58 11.4881C15.58 11.4094 15.58 11.4094 15.58 11.3307C15.9734 11.1733 16.2095 11.1733 16.4455 11.0946Z" fill="#003063"/>
<path d="M10.78 12.0389C10.8587 12.0389 10.9374 12.0389 11.0161 12.0389C11.0161 12.1962 11.0161 12.3536 11.0161 12.4323C10.9374 12.4323 10.8587 12.4323 10.7013 12.4323C10.7013 12.5897 10.7013 12.747 10.7013 12.9044C10.78 12.9044 10.8587 12.9044 10.9374 12.9044C10.9374 13.0618 10.9374 13.2192 10.9374 13.2978C10.8587 13.2978 10.7013 13.2978 10.6226 13.2978C10.6226 13.4552 10.6226 13.6913 10.6226 13.8486C10.7013 13.8486 10.78 13.8486 10.78 13.8486C10.78 14.006 10.78 14.1634 10.78 14.2421C10.7013 14.2421 10.6226 14.2421 10.5439 14.2421C10.5439 14.3994 10.5439 14.5568 10.5439 14.7929C10.6226 14.7929 10.7013 14.7929 10.78 14.7929C10.78 14.9502 10.78 15.1076 10.78 15.1863C10.7013 15.1863 10.6226 15.1863 10.5439 15.1863C10.5439 15.4223 10.5439 15.5797 10.5439 15.8158C10.6226 15.8158 10.7013 15.8158 10.78 15.8158C10.78 15.9731 10.78 16.1305 10.78 16.2092C10.7013 16.2092 10.6226 16.2092 10.5439 16.2092C10.5439 16.4452 10.5439 16.6813 10.5439 16.9174C10.6226 16.9174 10.7013 16.9174 10.78 16.9174C10.78 17.0747 10.78 17.2321 10.78 17.3108C10.7013 17.3108 10.6226 17.3108 10.5439 17.3108C10.5439 17.4682 10.5439 17.7042 10.5439 17.8616C10.6226 17.8616 10.7013 17.8616 10.78 17.8616C10.78 18.019 10.78 18.1763 10.78 18.255C10.7013 18.255 10.6226 18.255 10.5439 18.255C10.5439 18.4124 10.5439 18.6484 10.5439 18.8058C10.6226 18.8058 10.7013 18.8058 10.78 18.8058C10.78 18.9632 10.78 19.1205 10.78 19.1992C10.7013 19.1992 10.6226 19.1992 10.5439 19.1992C10.5439 19.3566 10.5439 19.5927 10.5439 19.75C10.6226 19.75 10.7013 19.75 10.78 19.75C10.78 19.9074 10.78 20.0648 10.78 20.1435C10.7013 20.1435 10.6226 20.1435 10.5439 20.1435C10.5439 20.3008 10.5439 20.4582 10.5439 20.6943C10.6226 20.6943 10.6226 20.6943 10.7013 20.6943C10.7013 20.8516 10.7013 21.009 10.7013 21.0877C10.6226 21.0877 10.6226 21.0877 10.5439 21.0877C10.5439 21.245 10.5439 21.4811 10.5439 21.6385C10.6226 21.6385 10.7013 21.6385 10.7013 21.6385C10.7013 21.7958 10.7013 21.9532 10.7013 22.0319C10.7013 22.0319 10.7013 22.0319 10.6226 22.0319C10.78 22.1893 10.9374 22.4253 11.0947 22.5827C11.1734 18.9632 11.2521 15.3437 11.2521 11.6454C11.0161 11.6454 10.78 11.6454 10.6226 11.7241C10.78 11.8815 10.78 11.9602 10.78 12.0389Z" fill="#003063"/>
<path d="M10.7798 11.6454V11.7241C11.0158 11.7241 11.2519 11.7241 11.4093 11.6454C11.4093 11.5667 11.4093 11.488 11.4093 11.4094C11.2519 11.5667 11.0158 11.5667 10.7798 11.6454Z" fill="#003063"/>
<path d="M13.2979 11.8815C13.4553 11.8815 13.534 11.8815 13.6914 11.8028C13.6914 11.9602 13.6914 12.1176 13.6914 12.1962C13.534 12.1962 13.4553 12.1962 13.2979 12.1962C13.2979 12.3536 13.2979 12.511 13.2979 12.6683C13.4553 12.6683 13.534 12.6683 13.6914 12.5897C13.6914 12.747 13.6914 12.9044 13.6914 12.9831C13.534 12.9831 13.4553 12.9831 13.2979 12.9831C13.2979 13.1405 13.2979 13.3765 13.2979 13.5339C13.3766 13.5339 13.4553 13.5339 13.6127 13.5339C13.6127 13.6913 13.6127 13.8486 13.6127 13.9273C13.534 13.9273 13.3766 13.9273 13.2979 13.9273C13.2979 14.0847 13.2979 14.2421 13.2979 14.4781C13.3766 14.4781 13.4553 14.4781 13.6127 14.4781C13.6127 14.6355 13.6127 14.7929 13.6127 14.8715C13.534 14.8715 13.3766 14.8715 13.2979 14.8715C13.2979 15.1076 13.2979 15.3436 13.2979 15.501C13.3766 15.501 13.534 15.501 13.6127 15.501C13.6127 15.6584 13.6127 15.8158 13.6127 15.8944C13.534 15.8944 13.3766 15.8944 13.2979 15.8944C13.2979 16.1305 13.2979 16.3666 13.2979 16.6026C13.3766 16.6026 13.534 16.6026 13.6127 16.6026C13.6127 16.76 13.6127 16.9174 13.6127 16.996C13.534 16.996 13.3766 16.996 13.2979 16.996C13.2979 17.1534 13.2979 17.3895 13.2979 17.5468C13.3766 17.5468 13.534 17.5468 13.6127 17.5468C13.6127 17.7042 13.6127 17.8616 13.6127 17.9403C13.4553 17.9403 13.3766 17.9403 13.2192 17.9403C13.2192 18.0976 13.2192 18.3337 13.2192 18.4911C13.2979 18.4911 13.4553 18.4911 13.534 18.4911C13.534 18.6484 13.534 18.8058 13.534 18.8845C13.4553 18.8845 13.2979 18.8845 13.2192 18.8845C13.2192 19.0419 13.2192 19.2779 13.2192 19.4353C13.2979 19.4353 13.4553 19.4353 13.534 19.4353C13.534 19.5927 13.534 19.75 13.534 19.8287C13.4553 19.8287 13.2979 19.8287 13.2192 19.8287C13.2192 19.9861 13.2192 20.2221 13.2192 20.3795C13.2979 20.3795 13.3766 20.3795 13.4553 20.3795C13.4553 20.5369 13.4553 20.6942 13.4553 20.7729C13.3766 20.7729 13.2979 20.7729 13.2192 20.7729C13.2192 20.9303 13.2192 21.1664 13.2192 21.3237C13.2979 21.3237 13.3766 21.3237 13.4553 21.3237C13.4553 21.4811 13.4553 21.6385 13.4553 21.7172C13.6127 21.8745 13.6914 22.0319 13.8487 22.1893C13.9274 18.5697 13.9274 14.9502 14.0061 11.252C13.77 11.252 13.534 11.252 13.3766 11.3307C13.2979 11.6454 13.2979 11.8028 13.2979 11.8815Z" fill="#003063"/>
<path d="M13.2979 11.4094C13.2979 11.4881 13.2979 11.4881 13.2979 11.5668C13.5339 11.5668 13.77 11.5668 13.9273 11.4881C13.9273 11.4094 13.9273 11.3307 13.9273 11.1733C13.77 11.3307 13.5339 11.4094 13.2979 11.4094Z" fill="#003063"/>
<path d="M15.8945 21.4811C15.8945 21.6385 15.8945 21.7958 15.8945 21.8745C15.9732 22.0319 16.1306 22.1106 16.2093 22.2679C16.288 18.6484 16.3667 14.9502 16.3667 11.3307C16.1306 11.3307 15.8945 11.3307 15.7372 11.4094C15.7372 11.5667 15.7372 11.6454 15.7372 11.8028C15.8945 11.8028 15.9732 11.8028 16.1306 11.7241C16.1306 11.8815 16.1306 12.0389 16.1306 12.1175C15.9732 12.1175 15.8945 12.1175 15.7372 12.1175C15.7372 12.2749 15.7372 12.4323 15.7372 12.5897C15.8945 12.5897 15.9732 12.5897 16.1306 12.511C16.1306 12.6683 16.1306 12.8257 16.1306 12.9044C15.9732 12.9044 15.8159 12.9044 15.7372 12.9044C15.7372 13.0618 15.7372 13.2978 15.7372 13.4552C15.8159 13.4552 15.9732 13.4552 16.0519 13.4552C16.0519 13.6126 16.0519 13.7699 16.0519 13.8486C15.9732 13.8486 15.8159 13.8486 15.7372 13.8486C15.7372 14.006 15.7372 14.1634 15.7372 14.3994C15.8159 14.3994 15.9732 14.3994 16.0519 14.3994C16.0519 14.5568 16.0519 14.7142 16.0519 14.7928C15.9732 14.7928 15.8159 14.7928 15.7372 14.7928C15.7372 15.0289 15.7372 15.265 15.7372 15.4223C15.8159 15.4223 15.9732 15.4223 16.0519 15.4223C16.0519 15.5797 16.0519 15.7371 16.0519 15.8157C15.8945 15.8157 15.8159 15.8157 15.6585 15.8157C15.6585 16.0518 15.6585 16.2879 15.6585 16.5239C15.7372 16.5239 15.8945 16.5239 15.9732 16.4452C15.9732 16.6026 15.9732 16.76 15.9732 16.8387C15.8159 16.8387 15.7372 16.8387 15.5798 16.8387C15.5798 16.996 15.5798 17.2321 15.5798 17.3895C15.7372 17.3895 15.8159 17.3895 15.9732 17.3108C15.9732 17.4681 15.9732 17.6255 15.9732 17.7042C15.8159 17.7042 15.7372 17.7042 15.5798 17.7042C15.5798 17.8616 15.5798 18.0976 15.5798 18.255C15.6585 18.255 15.8159 18.255 15.8945 18.255C15.8945 18.4124 15.8945 18.5697 15.8945 18.6484C15.7372 18.6484 15.6585 18.6484 15.5011 18.6484C15.5011 18.8058 15.5011 19.0418 15.5011 19.1992C15.5798 19.1992 15.7372 19.1992 15.8159 19.1992C15.8159 19.3566 15.8159 19.514 15.8159 19.5926C15.6585 19.5926 15.5798 19.5926 15.4224 19.5926C15.4224 19.75 15.4224 19.9861 15.4224 20.1434C15.5011 20.1434 15.5798 20.1434 15.6585 20.1434C15.6585 20.3008 15.6585 20.4582 15.6585 20.5369C15.5798 20.5369 15.5011 20.5369 15.3438 20.5369C15.3438 20.6942 15.3438 20.9303 15.3438 21.0877C15.7372 21.4811 15.8159 21.4811 15.8945 21.4811Z" fill="#003063"/>
<path d="M16.4454 11.0947C16.2093 11.1734 15.9733 11.252 15.8159 11.252C15.8159 11.3307 15.8159 11.3307 15.8159 11.4094C16.052 11.4094 16.288 11.4094 16.4454 11.3307C16.4454 11.252 16.4454 11.1734 16.4454 11.0947Z" fill="#003063"/>
<path d="M18.4909 11.5667C18.5696 11.5667 18.6483 11.5667 18.6483 11.5667C18.6483 11.7241 18.6483 11.8815 18.6483 11.9602C18.5696 11.9602 18.4909 11.9602 18.4122 11.9602C18.4122 12.1175 18.4122 12.2749 18.4122 12.4323C18.4909 12.4323 18.5696 12.4323 18.6483 12.4323C18.6483 12.5896 18.6483 12.747 18.6483 12.8257C18.5696 12.8257 18.4909 12.8257 18.4122 12.8257C18.4122 12.9831 18.4122 13.2191 18.4122 13.3765H18.4909C18.4909 13.5339 18.4909 13.6912 18.4909 13.7699C18.4122 13.7699 18.4122 13.7699 18.3336 13.7699C18.3336 13.9273 18.3336 14.0847 18.3336 14.3207C18.4122 14.3207 18.4122 14.3207 18.4909 14.3207C18.4909 14.4781 18.4909 14.6355 18.4909 14.7141C18.4122 14.7141 18.4122 14.7141 18.3336 14.7141C18.3336 14.9502 18.3336 15.1863 18.3336 15.3436C18.4122 15.3436 18.4122 15.3436 18.4909 15.3436C18.4909 15.501 18.4909 15.6584 18.4909 15.7371C18.4122 15.7371 18.4122 15.7371 18.3336 15.7371C18.3336 15.9731 18.3336 16.2092 18.3336 16.4452C18.4122 16.4452 18.4122 16.4452 18.4909 16.4452C18.4909 16.6026 18.4909 16.76 18.4909 16.8386C18.4122 16.8386 18.4122 16.8386 18.3336 16.8386C18.3336 16.996 18.3336 17.2321 18.3336 17.3894C18.4122 17.3894 18.4122 17.3894 18.4909 17.3894C18.4909 17.5468 18.4909 17.7042 18.4909 17.7829C18.4122 17.7829 18.4122 17.7829 18.3336 17.7829C18.3336 17.9402 18.3336 18.1763 18.3336 18.3337C18.4122 18.3337 18.4122 18.3337 18.4909 18.3337C18.4909 18.491 18.4909 18.6484 18.4909 18.7271C18.4122 18.7271 18.4122 18.7271 18.3336 18.7271C18.3336 18.8845 18.3336 19.1205 18.3336 19.2779H18.4122C18.4122 19.4353 18.4122 19.5926 18.4122 19.6713C18.3336 19.6713 18.3336 19.6713 18.2549 19.6713C18.2549 19.8287 18.2549 19.9861 18.2549 20.2221C18.2549 20.2221 18.2549 20.2221 18.3336 20.2221C18.3336 20.3795 18.3336 20.5369 18.3336 20.6155H18.2549C18.2549 20.7729 18.2549 21.009 18.2549 21.1663H18.3336C18.3336 21.3237 18.3336 21.4811 18.3336 21.5598H18.2549C18.2549 21.7958 18.2549 22.0319 18.2549 22.1892C15.0288 22.2679 11.8814 22.3466 8.65527 22.4253C8.89133 22.5827 9.12738 22.6614 9.36344 22.8187C12.5109 22.8187 15.6583 22.8187 18.8057 22.74C18.8057 18.491 18.8844 14.242 18.8844 10.0717C18.727 10.3865 18.4909 10.7012 18.3336 11.0159C18.4909 11.4094 18.4909 11.4881 18.4909 11.5667Z" fill="#003063"/>
<path d="M7.5538 13.2979C7.63249 13.2979 6.76695 16.6813 6.76695 16.6813C5.90141 16.9961 5.11456 17.3108 4.24902 17.6255C5.35062 17.6255 6.37353 17.6255 7.47512 17.6255C7.5538 16.2092 7.5538 14.7929 7.5538 13.2979Z" fill="#003063"/>
<path d="M7.16068 23.1335C7.23937 22.6614 7.39674 22.1106 7.47542 21.6385C7.55411 20.6156 7.55411 19.6713 7.63279 18.6484C7.39674 18.8058 7.16068 18.9632 6.92463 19.0419C6.92463 19.4353 6.92463 19.8287 6.84594 20.2221C5.66566 20.3795 4.56407 20.5369 3.38379 20.6943C4.56407 20.7729 5.66566 20.9303 6.84594 21.009C7.00331 21.6385 7.082 22.3466 7.16068 23.1335Z" fill="#003063"/>
<path d="M19.0419 8.81275C19.0419 9.04881 19.0419 9.28486 18.9632 9.44224C15.6584 9.83566 12.3536 10.1504 9.12753 10.5438C8.89147 10.7012 8.7341 10.7799 8.49805 10.9373C12.2749 10.6225 15.9731 10.3078 19.75 9.99303C19.75 9.52092 19.75 9.04881 19.75 8.5767C18.0976 8.34064 16.3666 8.10459 14.7142 7.86853C14.7142 8.0259 14.6355 8.10459 14.6355 8.26196C16.0518 8.41933 17.5469 8.65538 19.0419 8.81275Z" fill="#003063"/>
<path d="M14.4783 18.8058C14.3996 18.9632 14.2423 19.0419 14.1636 19.1992C14.6357 19.1992 15.1865 19.1205 15.6586 19.1205C15.6586 18.9632 15.6586 18.8845 15.6586 18.7271C15.2652 18.6484 14.8717 18.7271 14.4783 18.8058Z" fill="#003063"/>
<path d="M15.5796 21.4811C15.1861 21.5598 14.7927 21.5598 14.3206 21.6385C14.2419 21.7958 14.0845 21.8745 14.0059 22.0319C14.6353 21.9532 15.2648 21.9532 15.8943 21.8745C15.8156 21.7958 15.7369 21.6384 15.5796 21.4811Z" fill="#003063"/>
<path d="M14.3997 20.6942C14.321 20.8516 14.1636 20.9303 14.085 21.0877C14.6358 21.0877 15.1866 21.009 15.6587 21.009C15.6587 20.8516 15.6587 20.7729 15.6587 20.6155C15.1866 20.6155 14.7931 20.6155 14.3997 20.6942Z" fill="#003063"/>
<path d="M14.6355 11.8815C14.5569 12.0389 14.3995 12.1175 14.3208 12.2749C14.7929 12.2749 15.3437 12.1962 15.8158 12.1962C15.8158 12.0389 15.8158 11.9602 15.8158 11.8028C15.3437 11.8028 14.9503 11.8028 14.6355 11.8815Z" fill="#003063"/>
<path d="M14.4783 19.75C14.3996 19.9074 14.2423 19.9861 14.1636 20.1434C14.7144 20.1434 15.1865 20.0648 15.7373 20.0648C15.7373 19.9074 15.7373 19.8287 15.7373 19.6713C15.2652 19.5926 14.8717 19.6713 14.4783 19.75Z" fill="#003063"/>
<path d="M14.4783 13.6912C14.3996 13.8486 14.2423 13.9273 14.1636 14.0847C14.7144 14.0847 15.1865 14.006 15.7373 14.006C15.7373 13.8486 15.7373 13.7699 15.7373 13.6125C15.3439 13.6125 14.8717 13.6912 14.4783 13.6912Z" fill="#003063"/>
<path d="M14.4783 17.7829C14.3996 17.9403 14.2423 18.019 14.1636 18.1763C14.6357 18.1763 15.1865 18.0977 15.6586 18.0977C15.6586 17.9403 15.6586 17.8616 15.6586 17.7042C15.2652 17.7042 14.8717 17.7829 14.4783 17.7829Z" fill="#003063"/>
<path d="M14.4783 14.6355C14.3996 14.7929 14.2423 14.8716 14.1636 15.0289C14.7144 15.0289 15.1865 14.9502 15.7373 14.9502C15.7373 14.7929 15.7373 14.7142 15.7373 14.5568C15.3439 14.5568 14.8717 14.6355 14.4783 14.6355Z" fill="#003063"/>
<path d="M14.6355 12.747C14.5569 12.9044 14.3995 12.9831 14.3208 13.1404C14.7929 13.1404 15.265 13.0618 15.8158 13.0618C15.8158 12.9044 15.8158 12.8257 15.8158 12.6683C15.3437 12.6683 14.9503 12.6683 14.6355 12.747Z" fill="#003063"/>
<path d="M14.4783 16.8387C14.3996 16.9961 14.2423 17.0748 14.1636 17.2321C14.6357 17.2321 15.1865 17.1534 15.6586 17.1534C15.6586 16.9961 15.6586 16.9174 15.6586 16.76C15.2652 16.76 14.8717 16.8387 14.4783 16.8387Z" fill="#003063"/>
<path d="M14.4783 15.7371C14.3996 15.8944 14.2423 15.9731 14.1636 16.1305C14.6357 16.1305 15.1865 16.0518 15.6586 16.0518C15.6586 15.8944 15.6586 15.8158 15.6586 15.6584C15.2652 15.6584 14.8717 15.6584 14.4783 15.7371Z" fill="#003063"/>
<path d="M15.9734 18.5698C15.8947 18.5698 15.7374 18.5698 15.6587 18.5698C15.6587 18.7271 15.6587 18.8058 15.6587 18.9632C15.8161 18.9632 15.8947 18.9632 16.0521 18.9632C15.9734 18.8845 15.9734 18.7271 15.9734 18.5698Z" fill="#003063"/>
<path d="M16.0521 17.6255C15.8947 17.6255 15.8161 17.6255 15.6587 17.7042C15.6587 17.8616 15.6587 17.9403 15.6587 18.0977C15.8161 18.0977 15.8947 18.0977 16.0521 18.0977C16.0521 17.9403 16.0521 17.7829 16.0521 17.6255Z" fill="#003063"/>
<path d="M16.052 13.5339C15.9734 13.5339 15.816 13.5339 15.7373 13.5339C15.7373 13.6912 15.7373 13.7699 15.7373 13.9273C15.816 13.9273 15.9734 13.9273 16.052 13.9273C16.052 13.8486 16.052 13.6912 16.052 13.5339Z" fill="#003063"/>
<path d="M15.8947 20.5369C15.8161 20.5369 15.7374 20.5369 15.6587 20.5369C15.6587 20.6942 15.6587 20.7729 15.6587 20.9303C15.7374 20.9303 15.8161 20.9303 15.9734 20.9303C15.8947 20.7729 15.8947 20.6156 15.8947 20.5369Z" fill="#003063"/>
<path d="M16.052 16.6813C15.9734 16.6813 15.816 16.6813 15.7373 16.76C15.7373 16.9173 15.7373 16.996 15.7373 17.1534C15.8947 17.1534 15.9734 17.1534 16.1307 17.1534C16.052 16.9173 16.052 16.8386 16.052 16.6813Z" fill="#003063"/>
<path d="M15.8943 21.4811C15.8156 21.4811 15.6583 21.4811 15.5796 21.4811C15.6583 21.5598 15.737 21.7171 15.8943 21.7958C15.8943 21.7171 15.8943 21.5598 15.8943 21.4811Z" fill="#003063"/>
<path d="M16.1307 12.5897C15.9734 12.5897 15.8947 12.5897 15.7373 12.6683C15.7373 12.8257 15.7373 12.9044 15.7373 13.0618C15.8947 13.0618 16.052 13.0618 16.1307 13.0618C16.1307 12.8257 16.1307 12.747 16.1307 12.5897Z" fill="#003063"/>
<path d="M16.1307 11.7241C15.9734 11.7241 15.8947 11.7241 15.7373 11.8028C15.7373 11.9602 15.7373 12.0389 15.7373 12.1962C15.8947 12.1962 15.9734 12.1962 16.1307 12.1962C16.1307 11.9602 16.1307 11.8815 16.1307 11.7241Z" fill="#003063"/>
<path d="M16.052 14.4781C15.9734 14.4781 15.816 14.4781 15.7373 14.4781C15.7373 14.6355 15.7373 14.7141 15.7373 14.8715C15.816 14.8715 15.9734 14.8715 16.052 14.8715C16.052 14.7928 16.052 14.6355 16.052 14.4781Z" fill="#003063"/>
<path d="M16.052 15.501C15.9734 15.501 15.816 15.501 15.7373 15.501C15.7373 15.6584 15.7373 15.7371 15.7373 15.8945C15.8947 15.8945 15.9734 15.8945 16.1307 15.8945C16.052 15.8158 16.052 15.6584 16.052 15.501Z" fill="#003063"/>
<path d="M15.9734 19.514C15.8947 19.514 15.7374 19.514 15.6587 19.514C15.6587 19.6713 15.6587 19.75 15.6587 19.9074C15.8161 19.9074 15.8947 19.9074 16.0521 19.9074C15.9734 19.8287 15.9734 19.6713 15.9734 19.514Z" fill="#003063"/>
<path d="M9.44218 18.9632C9.3635 19.1206 9.20613 19.1993 9.12744 19.3566C9.67824 19.3566 10.1504 19.2779 10.7011 19.2779C10.7011 19.1206 10.7011 19.0419 10.7011 18.8845C10.229 18.8845 9.83561 18.9632 9.44218 18.9632Z" fill="#003063"/>
<path d="M9.44218 18.0977C9.3635 18.255 9.20613 18.3337 9.12744 18.4911C9.67824 18.4911 10.1504 18.4124 10.7011 18.4124C10.7011 18.255 10.7011 18.1764 10.7011 18.019C10.3077 17.9403 9.91429 18.019 9.44218 18.0977Z" fill="#003063"/>
<path d="M9.44218 17.0747C9.3635 17.2321 9.20613 17.3108 9.12744 17.4681C9.67824 17.4681 10.1504 17.3895 10.7011 17.3895C10.7011 17.2321 10.7011 17.1534 10.7011 16.996C10.3077 16.996 9.91429 17.0747 9.44218 17.0747Z" fill="#003063"/>
<path d="M9.44218 19.9074C9.3635 20.0648 9.20613 20.1435 9.12744 20.3008C9.67824 20.3008 10.1504 20.2222 10.7011 20.2222C10.7011 20.0648 10.7011 19.9861 10.7011 19.8287C10.229 19.8287 9.83561 19.9074 9.44218 19.9074Z" fill="#003063"/>
<path d="M9.36357 20.8516C9.28488 21.009 9.12751 21.0877 9.04883 21.2451C9.59963 21.2451 10.1504 21.1664 10.7012 21.1664C10.7012 21.009 10.7012 20.9303 10.7012 20.7729C10.2291 20.7729 9.757 20.8516 9.36357 20.8516Z" fill="#003063"/>
<path d="M10.6225 21.6385C10.2291 21.7172 9.757 21.7172 9.36357 21.7959C9.28488 21.9532 9.12751 22.0319 9.04883 22.1893C9.59963 22.1106 10.2291 22.1106 10.8586 22.1106C10.7799 22.0319 10.7799 21.9532 10.7012 21.9532C10.6225 21.7959 10.6225 21.7172 10.6225 21.6385Z" fill="#003063"/>
<path d="M9.5999 12.1962C9.52121 12.3536 9.36384 12.4323 9.28516 12.5897C9.75727 12.5897 10.3081 12.511 10.7802 12.511C10.7802 12.3536 10.7802 12.2749 10.7802 12.1176C10.3867 12.1176 9.99332 12.1176 9.5999 12.1962Z" fill="#003063"/>
<path d="M9.5999 13.0618C9.52121 13.2191 9.36384 13.2978 9.28516 13.4552C9.75727 13.4552 10.3081 13.3765 10.7802 13.3765C10.7802 13.2191 10.7802 13.1405 10.7802 12.9831C10.3867 12.9831 9.99332 12.9831 9.5999 13.0618Z" fill="#003063"/>
<path d="M9.44218 14.006C9.3635 14.1634 9.20613 14.242 9.12744 14.3994C9.67824 14.3994 10.229 14.3207 10.7011 14.3207C10.7011 14.1634 10.7011 14.0847 10.7011 13.9273C10.3077 13.9273 9.91429 13.9273 9.44218 14.006Z" fill="#003063"/>
<path d="M9.44218 14.9502C9.3635 15.1076 9.20613 15.1863 9.12744 15.3436C9.67824 15.3436 10.1504 15.2649 10.7011 15.2649C10.7011 15.1076 10.7011 15.0289 10.7011 14.8715C10.3077 14.8715 9.91429 14.8715 9.44218 14.9502Z" fill="#003063"/>
<path d="M9.44218 15.9732C9.3635 16.1305 9.20613 16.2092 9.12744 16.3666C9.67824 16.3666 10.1504 16.2879 10.7011 16.2879C10.7011 16.1305 10.7011 16.0518 10.7011 15.8945C10.3077 15.8945 9.91429 15.9732 9.44218 15.9732Z" fill="#003063"/>
<path d="M10.9372 15.8158C10.8585 15.8158 10.7799 15.8158 10.7012 15.8158C10.7012 15.9732 10.7012 16.0519 10.7012 16.2092C10.7799 16.2092 10.8585 16.2092 10.9372 16.2092C10.9372 16.0519 10.9372 15.9732 10.9372 15.8158Z" fill="#003063"/>
<path d="M10.9372 16.9174C10.8585 16.9174 10.7799 16.9174 10.7012 16.9174C10.7012 17.0747 10.7012 17.1534 10.7012 17.3108C10.7799 17.3108 10.8585 17.3108 10.9372 17.3108C10.9372 17.2321 10.9372 17.0747 10.9372 16.9174Z" fill="#003063"/>
<path d="M11.0158 12.0389C10.9372 12.0389 10.8585 12.0389 10.7798 12.0389C10.7798 12.1962 10.7798 12.2749 10.7798 12.4323C10.8585 12.4323 10.9372 12.4323 11.0945 12.4323C11.0158 12.2749 11.0158 12.1962 11.0158 12.0389Z" fill="#003063"/>
<path d="M11.0158 12.9044C10.9372 12.9044 10.8585 12.9044 10.7798 12.9044C10.7798 13.0618 10.7798 13.1405 10.7798 13.2978C10.8585 13.2978 11.0158 13.2978 11.0945 13.2978C11.0158 13.1405 11.0158 12.9831 11.0158 12.9044Z" fill="#003063"/>
<path d="M10.8585 21.6385C10.7799 21.6385 10.7012 21.6385 10.7012 21.6385C10.7012 21.7172 10.7012 21.7959 10.7012 21.8745C10.7799 21.9532 10.7799 22.0319 10.8585 22.0319C10.8585 22.0319 10.8585 22.0319 10.9372 22.0319C10.8585 21.9532 10.8585 21.7959 10.8585 21.6385Z" fill="#003063"/>
<path d="M10.9372 14.7928C10.8585 14.7928 10.7799 14.7928 10.7012 14.7928C10.7012 14.9502 10.7012 15.0289 10.7012 15.1863C10.7799 15.1863 10.8585 15.1863 10.9372 15.1863C10.9372 15.0289 10.9372 14.8715 10.9372 14.7928Z" fill="#003063"/>
<path d="M10.9372 13.8486C10.8585 13.8486 10.7798 13.8486 10.7798 13.8486C10.7798 14.006 10.7798 14.0847 10.7798 14.2421C10.8585 14.2421 10.9372 14.2421 11.0158 14.2421C10.9372 14.0847 10.9372 14.006 10.9372 13.8486Z" fill="#003063"/>
<path d="M10.7799 20.6943C10.7012 20.6943 10.7012 20.6943 10.6226 20.6943C10.6226 20.8516 10.6226 20.9303 10.6226 21.0877C10.7012 21.0877 10.7012 21.0877 10.7799 21.0877C10.7799 21.009 10.7799 20.8516 10.7799 20.6943Z" fill="#003063"/>
<path d="M10.8586 19.75C10.7799 19.75 10.7012 19.75 10.6226 19.75C10.6226 19.9074 10.6226 19.9861 10.6226 20.1434C10.7012 20.1434 10.7799 20.1434 10.8586 20.1434C10.8586 20.0647 10.8586 19.9074 10.8586 19.75Z" fill="#003063"/>
<path d="M10.9372 18.8058C10.8585 18.8058 10.7799 18.8058 10.7012 18.8058C10.7012 18.9632 10.7012 19.0418 10.7012 19.1992C10.7799 19.1992 10.8585 19.1992 10.9372 19.1992C10.9372 19.1205 10.9372 18.9632 10.9372 18.8058Z" fill="#003063"/>
<path d="M10.9372 17.8616C10.8585 17.8616 10.7799 17.8616 10.7012 17.8616C10.7012 18.0189 10.7012 18.0976 10.7012 18.255C10.7799 18.255 10.8585 18.255 10.9372 18.255C10.9372 18.1763 10.9372 18.0189 10.9372 17.8616Z" fill="#003063"/>
<path d="M17.075 13.6126C16.9963 13.7699 16.8389 13.8486 16.7603 14.006C17.3111 13.9273 17.8618 13.9273 18.4913 13.8486C18.4913 13.6913 18.4913 13.5339 18.4913 13.4552C18.0192 13.4552 17.5471 13.5339 17.075 13.6126Z" fill="#003063"/>
<path d="M17.2322 12.5897C17.1535 12.7471 16.9962 12.8257 16.9175 12.9831C17.4683 12.9044 18.0191 12.9044 18.4912 12.8257C18.4912 12.6684 18.4912 12.511 18.4912 12.4323C18.0191 12.511 17.6256 12.5897 17.2322 12.5897Z" fill="#003063"/>
<path d="M17.075 14.5568C16.9963 14.7142 16.8389 14.7928 16.7603 14.9502C17.3111 14.8715 17.8618 14.8715 18.4126 14.7928C18.4126 14.6355 18.4126 14.4781 18.4126 14.3994C18.0192 14.3994 17.5471 14.4781 17.075 14.5568Z" fill="#003063"/>
<path d="M17.2322 11.7241C17.1535 11.8815 16.9962 11.9602 16.9175 12.1176C17.4683 12.0389 18.0191 12.0389 18.4912 11.9602C18.4912 11.8028 18.4912 11.6455 18.4912 11.5668C18.0191 11.6455 17.6256 11.7241 17.2322 11.7241Z" fill="#003063"/>
<path d="M17.075 19.6713C16.9963 19.8287 16.8389 19.9074 16.7603 20.0648C17.3111 19.9861 17.8618 19.9861 18.4913 19.9074C18.4913 19.75 18.4913 19.5927 18.4913 19.514C17.9405 19.514 17.4684 19.5927 17.075 19.6713Z" fill="#003063"/>
<path d="M17.075 15.5797C16.9963 15.7371 16.8389 15.8158 16.7603 15.9732C17.3111 15.8945 17.8618 15.8945 18.4126 15.8158C18.4126 15.6584 18.4126 15.501 18.4126 15.4224C18.0192 15.501 17.5471 15.5797 17.075 15.5797Z" fill="#003063"/>
<path d="M16.9959 21.5598C16.9172 21.7171 16.7598 21.7958 16.6812 21.9532C17.2319 21.8745 17.8614 21.8745 18.4122 21.7958C18.4122 21.6385 18.4122 21.4811 18.4122 21.4024C17.9401 21.4811 17.468 21.4811 16.9959 21.5598Z" fill="#003063"/>
<path d="M17.075 18.7271C16.9963 18.8845 16.8389 18.9632 16.7603 19.1206C17.3111 19.0419 17.8618 19.0419 18.4126 18.9632C18.4126 18.8058 18.4126 18.6484 18.4126 18.5698C17.9405 18.5698 17.5471 18.6484 17.075 18.7271Z" fill="#003063"/>
<path d="M16.9959 20.6156C16.9172 20.7729 16.7598 20.8516 16.6812 21.009C17.2319 20.9303 17.8614 20.9303 18.4122 20.8516C18.4122 20.6942 18.4122 20.5369 18.4122 20.4582C17.9401 20.4582 17.468 20.5369 16.9959 20.6156Z" fill="#003063"/>
<path d="M17.075 17.7042C16.9963 17.8616 16.8389 17.9402 16.7603 18.0976C17.3111 18.0976 17.8618 18.0189 18.4126 17.9402C18.4126 17.7829 18.4126 17.6255 18.4126 17.5468C17.9405 17.6255 17.5471 17.7042 17.075 17.7042Z" fill="#003063"/>
<path d="M17.075 16.76C16.9963 16.9173 16.8389 16.996 16.7603 17.1534C17.3111 17.0747 17.8618 17.0747 18.4126 16.996C18.4126 16.8387 18.4126 16.6813 18.4126 16.6026C18.0192 16.6026 17.5471 16.6813 17.075 16.76Z" fill="#003063"/>
<path d="M18.4127 20.4582C18.334 20.6156 18.334 20.7729 18.334 20.8516H18.4127C18.4127 20.6942 18.4127 20.5369 18.4127 20.4582Z" fill="#003063"/>
<path d="M18.4913 19.4353H18.4126C18.4126 19.5927 18.4126 19.75 18.4126 19.8287C18.4913 19.8287 18.4913 19.8287 18.57 19.8287C18.4913 19.75 18.4913 19.5927 18.4913 19.4353Z" fill="#003063"/>
<path d="M18.4913 21.4024C18.4126 21.4024 18.4126 21.4024 18.4913 21.4024C18.4126 21.5598 18.4126 21.7171 18.4126 21.7958H18.4913C18.4913 21.6385 18.4913 21.5598 18.4913 21.4024Z" fill="#003063"/>
<path d="M18.6486 11.5668C18.5699 11.5668 18.4912 11.5668 18.4912 11.5668C18.4912 11.7241 18.4912 11.8815 18.4912 11.9602C18.5699 11.9602 18.6486 11.9602 18.7273 11.9602C18.6486 11.8815 18.6486 11.7241 18.6486 11.5668Z" fill="#003063"/>
<path d="M18.5699 13.4552H18.4912C18.4912 13.6126 18.4912 13.7699 18.4912 13.8486C18.5699 13.8486 18.5699 13.8486 18.6486 13.8486C18.5699 13.6913 18.5699 13.5339 18.5699 13.4552Z" fill="#003063"/>
<path d="M18.6487 12.4323C18.57 12.4323 18.4913 12.4323 18.4126 12.4323C18.4126 12.5897 18.4126 12.7471 18.4126 12.8257C18.4913 12.8257 18.57 12.8257 18.6487 12.8257C18.6487 12.7471 18.6487 12.5897 18.6487 12.4323Z" fill="#003063"/>
<path d="M18.57 14.3994C18.4913 14.3994 18.4913 14.3994 18.4126 14.3994C18.4126 14.5568 18.4126 14.7142 18.4126 14.7928C18.4913 14.7928 18.4913 14.7928 18.57 14.7928C18.57 14.6355 18.57 14.4781 18.57 14.3994Z" fill="#003063"/>
<path d="M18.57 16.6026C18.4913 16.6026 18.4913 16.6026 18.4126 16.6026C18.4126 16.76 18.4126 16.9173 18.4126 16.996C18.4913 16.996 18.4913 16.996 18.57 16.996C18.57 16.8387 18.57 16.6813 18.57 16.6026Z" fill="#003063"/>
<path d="M18.57 18.4911C18.4913 18.4911 18.4913 18.4911 18.4126 18.4911C18.4126 18.6485 18.4126 18.8058 18.4126 18.8845C18.4913 18.8845 18.4913 18.8845 18.57 18.8845C18.57 18.8058 18.57 18.6485 18.57 18.4911Z" fill="#003063"/>
<path d="M18.57 17.5468C18.4913 17.5468 18.4913 17.5468 18.4126 17.5468C18.4126 17.7042 18.4126 17.8616 18.4126 17.9402C18.4913 17.9402 18.4913 17.9402 18.57 17.9402C18.57 17.8616 18.57 17.7042 18.57 17.5468Z" fill="#003063"/>
<path d="M18.57 15.4224C18.4913 15.4224 18.4913 15.4224 18.4126 15.4224C18.4126 15.5797 18.4126 15.7371 18.4126 15.8158C18.4913 15.8158 18.4913 15.8158 18.57 15.8158C18.57 15.7371 18.57 15.5797 18.57 15.4224Z" fill="#003063"/>
<path d="M11.8816 20.773C11.803 20.9303 11.6456 21.009 11.5669 21.1664C12.1177 21.1664 12.6685 21.0877 13.2193 21.0877C13.2193 20.9303 13.2193 20.8516 13.2193 20.6943C12.7472 20.6943 12.3537 20.773 11.8816 20.773Z" fill="#003063"/>
<path d="M13.2192 21.6385C12.8258 21.7172 12.3537 21.7172 11.9602 21.7959C11.8816 21.9532 11.7242 22.0319 11.6455 22.1893C12.275 22.1106 12.9045 22.1106 13.534 22.0319C13.4553 21.9532 13.3766 21.7959 13.2979 21.7172C13.2192 21.6385 13.2192 21.6385 13.2192 21.6385Z" fill="#003063"/>
<path d="M12.0389 13.8486C11.9602 14.006 11.8028 14.0847 11.7241 14.2421C12.2749 14.2421 12.747 14.1634 13.2978 14.1634C13.2978 14.006 13.2978 13.9273 13.2978 13.77C12.9044 13.77 12.4323 13.77 12.0389 13.8486Z" fill="#003063"/>
<path d="M12.1175 12.9044C12.0388 13.0618 11.8814 13.1405 11.8027 13.2979C12.2748 13.2979 12.8256 13.2192 13.2978 13.2192C13.2978 13.0618 13.2978 12.9831 13.2978 12.8257C12.9043 12.8257 12.5109 12.8257 12.1175 12.9044Z" fill="#003063"/>
<path d="M12.1175 12.0389C12.0388 12.1963 11.8814 12.2749 11.8027 12.4323C12.2748 12.4323 12.8256 12.3536 13.2978 12.3536C13.2978 12.1963 13.2978 12.1176 13.2978 11.9602C12.9043 11.9602 12.5109 11.9602 12.1175 12.0389Z" fill="#003063"/>
<path d="M12.0389 16.996C11.9602 17.1534 11.8028 17.2321 11.7241 17.3895C12.2749 17.3895 12.747 17.3108 13.2978 17.3108C13.2978 17.1534 13.2978 17.0747 13.2978 16.9174C12.8257 16.9174 12.4323 16.9174 12.0389 16.996Z" fill="#003063"/>
<path d="M11.9602 19.8287C11.8816 19.9861 11.7242 20.0647 11.6455 20.2221C12.1963 20.2221 12.6684 20.1434 13.2192 20.1434C13.2192 19.9861 13.2192 19.9074 13.2192 19.75C12.8258 19.75 12.4324 19.8287 11.9602 19.8287Z" fill="#003063"/>
<path d="M12.0389 14.7929C11.9602 14.9502 11.8028 15.0289 11.7241 15.1863C12.2749 15.1863 12.747 15.1076 13.2978 15.1076C13.2978 14.9502 13.2978 14.8715 13.2978 14.7142C12.9044 14.7142 12.4323 14.7142 12.0389 14.7929Z" fill="#003063"/>
<path d="M12.0389 17.9403C11.9602 18.0976 11.8028 18.1763 11.7241 18.3337C12.1962 18.3337 12.747 18.255 13.2191 18.255C13.2191 18.0976 13.2191 18.0189 13.2191 17.8616C12.8257 17.8616 12.4323 17.8616 12.0389 17.9403Z" fill="#003063"/>
<path d="M12.0389 18.8845C11.9602 19.0418 11.8028 19.1205 11.7241 19.2779C12.2749 19.2779 12.747 19.1992 13.2978 19.1992C13.2978 19.0418 13.2978 18.9632 13.2978 18.8058C12.8257 18.8058 12.4323 18.8845 12.0389 18.8845Z" fill="#003063"/>
<path d="M12.0389 15.8157C11.9602 15.9731 11.8028 16.0518 11.7241 16.2092C12.2749 16.2092 12.747 16.1305 13.2978 16.1305C13.2978 15.9731 13.2978 15.8944 13.2978 15.7371C12.9044 15.7371 12.4323 15.8157 12.0389 15.8157Z" fill="#003063"/>
<path d="M13.534 18.7271C13.4553 18.7271 13.2979 18.7271 13.2192 18.7271C13.2192 18.8845 13.2192 18.9632 13.2192 19.1205C13.2979 19.1205 13.4553 19.1205 13.534 19.1205C13.534 18.9632 13.534 18.8845 13.534 18.7271Z" fill="#003063"/>
<path d="M13.4553 20.6155C13.3766 20.6155 13.2979 20.6155 13.2192 20.6155C13.2192 20.7729 13.2192 20.8516 13.2192 21.009C13.2979 21.009 13.3766 21.009 13.4553 21.009C13.4553 20.9303 13.4553 20.7729 13.4553 20.6155Z" fill="#003063"/>
<path d="M13.534 19.6713C13.4553 19.6713 13.2979 19.6713 13.2192 19.6713C13.2192 19.8287 13.2192 19.9074 13.2192 20.0648C13.2979 20.0648 13.4553 20.0648 13.534 20.0648C13.534 19.9861 13.534 19.8287 13.534 19.6713Z" fill="#003063"/>
<path d="M13.6126 17.7829C13.5339 17.7829 13.3765 17.7829 13.2979 17.7829C13.2979 17.9403 13.2979 18.019 13.2979 18.1763C13.4552 18.1763 13.5339 18.1763 13.6913 18.1763C13.6126 18.019 13.6126 17.9403 13.6126 17.7829Z" fill="#003063"/>
<path d="M13.6126 15.6584C13.5339 15.6584 13.3765 15.6584 13.2979 15.6584C13.2979 15.8158 13.2979 15.8944 13.2979 16.0518C13.3765 16.0518 13.5339 16.0518 13.6126 16.0518C13.6126 15.9731 13.6126 15.8158 13.6126 15.6584Z" fill="#003063"/>
<path d="M13.6126 16.76C13.5339 16.76 13.3765 16.76 13.2979 16.76C13.2979 16.9174 13.2979 16.9961 13.2979 17.1534C13.3765 17.1534 13.5339 17.1534 13.6126 17.1534C13.6126 17.0748 13.6126 16.9174 13.6126 16.76Z" fill="#003063"/>
<path d="M13.6126 14.6355C13.5339 14.6355 13.4552 14.6355 13.2979 14.6355C13.2979 14.7929 13.2979 14.8716 13.2979 15.0289C13.3765 15.0289 13.5339 15.0289 13.6126 15.0289C13.6126 14.8716 13.6126 14.7142 13.6126 14.6355Z" fill="#003063"/>
<path d="M13.4553 21.5598C13.3766 21.5598 13.2979 21.5598 13.2192 21.5598V21.6385C13.2979 21.7172 13.3766 21.8746 13.4553 21.9532C13.4553 21.8746 13.4553 21.7172 13.4553 21.5598Z" fill="#003063"/>
<path d="M13.6913 11.8028C13.5339 11.8028 13.4552 11.8028 13.2979 11.8815C13.2979 12.0389 13.2979 12.1175 13.2979 12.2749C13.4552 12.2749 13.5339 12.2749 13.6913 12.2749C13.6913 12.1175 13.6913 11.9602 13.6913 11.8028Z" fill="#003063"/>
<path d="M13.6913 12.6683C13.5339 12.6683 13.4552 12.6683 13.2979 12.747C13.2979 12.9044 13.2979 12.9831 13.2979 13.1404C13.4552 13.1404 13.5339 13.1404 13.6913 13.1404C13.6913 12.9831 13.6913 12.8257 13.6913 12.6683Z" fill="#003063"/>
<path d="M13.6126 13.6913C13.5339 13.6913 13.4552 13.6913 13.2979 13.6913C13.2979 13.8487 13.2979 13.9273 13.2979 14.0847C13.3765 14.0847 13.5339 14.0847 13.6126 14.0847C13.6126 13.9273 13.6126 13.8487 13.6126 13.6913Z" fill="#003063"/>
<path d="M21.0879 8.18329C20.9305 8.18329 20.7731 8.18329 20.6158 8.18329C20.5371 8.81277 20.4584 9.44225 20.3797 10.0717C20.065 10.3078 19.7502 10.4652 19.5142 10.7012C19.5142 14.8715 19.5928 19.1205 19.5928 23.2909C19.8289 19.1992 19.9863 15.1863 20.2223 11.0946C23.4484 11.016 26.045 11.3307 28.4056 11.8028C26.6745 11.016 24.4713 10.3865 21.0092 10.0717C21.0092 9.44225 21.0879 8.81277 21.0879 8.18329Z" fill="#003063"/>
<path d="M25.7304 17.1534C25.7304 16.9174 25.573 16.6026 25.337 16.6026C23.9206 16.524 22.5043 16.6026 21.088 16.76C20.8519 16.76 20.6159 16.9174 20.6159 17.1534C20.4585 18.019 20.5372 18.8845 20.4585 19.7501C20.4585 19.9074 20.4585 20.3009 20.7732 20.3795C22.0322 20.6156 23.2912 20.5369 24.5501 20.4582C24.5501 20.3795 24.5501 20.3009 24.6288 20.2222C24.6288 20.1435 24.7075 20.0648 24.7862 19.9861C24.7075 20.0648 24.6288 20.0648 24.4714 20.0648C23.3699 20.1435 22.2683 20.2222 21.1667 19.9861C20.9306 19.9074 20.9306 19.5927 20.9306 19.514C20.9306 19.4353 20.9306 19.2779 20.9306 19.1993C20.7732 18.9632 20.6946 18.7271 20.6946 18.4124C20.6946 18.0977 20.8519 17.7829 21.0093 17.5469C21.0093 17.4682 21.0093 17.4682 21.0093 17.3895C21.0093 17.1534 21.2453 17.0748 21.4027 17.0748C22.583 16.9961 23.7633 16.9174 24.8649 16.9961C25.0222 16.9961 25.1796 17.2321 25.1796 17.3895C25.1796 17.4682 25.1796 17.6256 25.1796 17.7042C25.2583 17.9403 25.337 18.0977 25.337 18.4124C25.337 18.7271 25.2583 19.0419 25.0222 19.2779C25.0222 19.4353 25.0222 19.514 24.9436 19.6714C24.9436 19.7501 24.8649 19.8287 24.7862 19.9074C24.8649 19.9074 24.9436 19.8287 25.0222 19.9074C25.1009 19.9861 25.1796 20.1435 25.1796 20.2222C25.337 20.1435 25.4157 20.0648 25.4157 19.9074C25.7304 18.9632 25.7304 18.0977 25.7304 17.1534Z" fill="#003063"/>
<path d="M6.05883 19.8287C5.42935 19.3566 5.74409 18.4911 6.05883 18.019C4.6425 18.019 4.72118 19.6714 6.05883 19.8287Z" fill="#003063"/>
<path d="M31.7103 17.1534C31.5529 16.996 31.3169 16.8387 31.1595 16.6813L31.0808 16.6026C30.53 16.2879 29.9005 16.2879 29.271 15.9731C28.5629 15.6584 27.776 14.9502 26.6744 14.7929C25.022 14.4781 23.6057 14.7142 22.1107 14.7929C21.2451 15.1076 20.6944 15.5797 20.6157 16.1305C22.5041 16.0518 24.3139 15.9731 26.0449 16.1305C26.2023 16.1305 26.4384 16.3666 26.4384 16.6026C26.281 18.255 25.9663 19.75 25.4942 21.245C25.4155 20.9303 25.4155 20.5369 25.3368 20.3008C25.1794 20.3795 25.022 20.4582 24.8647 20.4582C24.786 20.4582 24.7073 20.4582 24.6286 20.4582C24.5499 20.8516 24.5499 21.3237 24.3926 21.7172C24.2352 22.0319 23.9204 22.1893 23.6844 22.1893C22.5041 22.504 21.3238 22.7401 20.1436 23.0548C22.032 23.1335 23.9204 23.1335 25.8876 23.2122C26.281 20.6942 26.5171 17.9403 28.3268 16.8387C29.1137 16.3666 30.0579 16.2879 31.0021 16.996C32.2611 17.8616 33.0479 19.5927 33.2053 23.3695C33.2053 23.4482 33.2053 23.5269 33.2053 23.6056C33.284 22.4253 33.3627 21.245 33.1266 20.0648C33.0479 19.8287 33.0479 19.6713 33.0479 19.4353C32.8119 18.5697 32.4971 17.8616 31.9463 17.2321C31.789 17.2321 31.7103 17.1534 31.7103 17.1534Z" fill="#003063"/>
<path d="M24.9434 19.9074C24.9434 19.9074 24.8647 19.9074 24.8647 19.9861C24.8647 19.9074 24.8647 19.9074 24.9434 19.9074Z" fill="#003063"/>
<path d="M24.9432 19.9074L24.8645 19.9861C24.7858 20.0648 24.7071 20.1435 24.7071 20.2221C24.7071 20.3008 24.6284 20.3795 24.6284 20.4582C24.7071 20.4582 24.7858 20.4582 24.8645 20.4582C25.0218 20.4582 25.1792 20.3795 25.3366 20.3008C25.3366 20.1435 25.2579 20.0648 25.1792 19.9861C25.1005 19.8287 25.0218 19.8287 24.9432 19.9074Z" fill="#003063"/>
<path d="M24.1564 17.0747C23.5269 17.0747 22.9761 17.6255 22.9761 18.3337V18.4124V18.491C23.0548 19.1992 23.5269 19.75 24.1564 19.75C24.5498 19.75 24.8645 19.5139 25.1006 19.1992C25.1793 18.7271 25.1793 18.1763 25.1793 17.7042C25.0219 17.3108 24.6285 17.0747 24.1564 17.0747ZM23.999 19.3566C23.5269 19.3566 23.1334 18.8845 23.1334 18.3337C23.1334 17.7829 23.5269 17.3108 23.999 17.3108C24.4711 17.3108 24.8645 17.7829 24.8645 18.3337C24.8645 18.8845 24.4711 19.3566 23.999 19.3566Z" fill="#003063"/>
<path d="M25.4153 18.4124C25.4153 18.1763 25.3366 17.9403 25.2579 17.7042C25.2579 18.1763 25.2579 18.7271 25.1792 19.1992C25.3366 19.0419 25.4153 18.7271 25.4153 18.4124Z" fill="#003063"/>
<path d="M21.8744 19.6714C22.5039 19.6714 22.976 19.1206 22.976 18.4911V18.4124V18.3337C22.8973 17.7042 22.4252 17.1534 21.8744 17.1534C21.5597 17.1534 21.2449 17.3108 21.0089 17.5469C21.0089 17.6256 21.0089 17.7042 21.0089 17.7829C21.1662 17.5469 21.4023 17.3895 21.6383 17.3895C22.1105 17.3895 22.5039 17.7829 22.5039 18.3337C22.5039 18.8845 22.1105 19.2779 21.6383 19.2779C21.3236 19.2779 21.0875 19.1206 20.9302 18.8058C20.9302 18.9632 20.9302 19.0419 20.9302 19.1993C21.1662 19.514 21.481 19.6714 21.8744 19.6714Z" fill="#003063"/>
<path d="M20.8517 18.3337C20.8517 18.0976 20.9304 17.9402 21.0091 17.7829C21.0091 17.7042 21.0091 17.6255 21.0091 17.5468C20.8517 17.7829 20.6943 18.0976 20.6943 18.4124C20.6943 18.7271 20.773 18.9631 20.9304 19.1992C20.9304 19.0418 20.9304 18.9631 20.9304 18.8058C20.9304 18.6484 20.8517 18.491 20.8517 18.3337Z" fill="#003063"/>
<path d="M7.86858 11.8028C7.94727 11.0947 8.02595 10.3865 8.10464 9.59964C9.67835 8.97016 11.252 8.34068 12.8258 7.7112C12.8258 7.47514 12.8258 7.23908 12.8258 7.00303C13.2979 6.92434 13.77 6.84566 14.2421 6.76697C14.1634 7.47514 14.0847 8.18331 14.006 8.89147C13.6913 8.89147 13.2979 8.89147 12.9831 8.97016C12.9044 8.65542 12.9044 8.34068 12.8258 8.02594C11.3307 8.49805 9.9144 9.04885 8.49807 9.52096C8.57675 9.59964 8.73412 9.59964 8.81281 9.67833C10.1505 9.2849 11.4094 8.81279 12.7471 8.41936C12.7471 8.7341 12.8258 9.04884 12.8258 9.36359C13.3766 9.36359 13.9273 9.2849 14.4781 9.2849C14.5568 8.89147 14.6355 8.57673 14.7142 8.18331C14.6355 8.18331 14.5568 8.18331 14.4781 8.18331C14.4781 8.02594 14.4781 7.94725 14.4781 7.78988C14.5568 7.78988 14.6355 7.78988 14.7929 7.86857C14.7929 7.7112 14.8716 7.55383 14.8716 7.31777C14.7929 7.31777 14.7142 7.31777 14.6355 7.31777C14.6355 7.1604 14.6355 7.00303 14.6355 6.84566C14.7142 6.84566 14.7929 6.84566 14.9503 6.84566C14.7929 6.68829 14.6355 6.53092 14.5568 6.29486C13.8487 6.45223 13.1405 6.53092 12.4323 6.68829C12.4323 6.92434 12.511 7.1604 12.511 7.39645C10.9373 7.94725 9.44229 8.57673 7.86858 9.12753C7.7899 10.0718 7.7899 10.9373 7.86858 11.8028Z" fill="#003063"/>
<path d="M14.3994 8.26197C14.4781 8.26197 14.5568 8.26197 14.6355 8.26197C14.6355 8.1046 14.7142 8.02591 14.7142 7.86854C14.6355 7.86854 14.5568 7.86854 14.3994 7.78986C14.3994 7.94723 14.3994 8.1046 14.3994 8.26197Z" fill="#003063"/>
<path d="M14.793 7.31777C16.7601 7.23909 18.7272 7.31777 20.6944 7.63251C20.6157 7.55383 20.6157 7.39646 20.6157 7.31777C20.773 7.31777 21.0091 7.31777 21.1665 7.39646C21.1665 6.37355 21.3238 5.27195 21.6386 4.09167C20.0649 4.09167 18.4912 4.17036 16.9175 4.24905C16.4454 4.32773 16.0519 4.32773 15.5798 4.40642C16.2093 4.4851 16.8388 4.4851 17.3896 4.56379C16.9175 4.64247 16.3667 4.79984 15.8946 4.87853C17.4683 4.79984 19.042 4.87853 20.6157 5.11458C19.5141 5.11458 18.4125 5.19327 17.3109 5.27195C18.2551 5.27195 19.1207 5.35064 20.0649 5.35064C19.4354 5.42932 18.7272 5.50801 18.0977 5.58669C18.9633 5.66538 19.7501 5.82275 20.6157 5.90144C19.1993 5.90144 17.8617 5.98012 16.4454 6.05881C17.4683 6.05881 18.4125 6.13749 19.278 6.37355C18.6485 6.45223 18.0978 6.53092 17.4683 6.6096C18.1764 6.6096 18.8846 6.6096 19.4354 6.76697C17.9404 6.68829 16.524 6.68829 15.029 6.76697C14.8717 7.00303 14.793 7.1604 14.793 7.31777Z" fill="#003063"/>
<path d="M14.5566 7.31775C14.6353 7.31775 14.714 7.31775 14.7927 7.31775C14.7927 7.16038 14.8714 7.00301 14.8714 6.84564C14.7927 6.84564 14.714 6.84564 14.5566 6.84564C14.5566 7.00301 14.5566 7.16038 14.5566 7.31775Z" fill="#003063"/>
<path d="M21.56 4.01299C21.56 4.09167 21.56 4.09167 21.56 4.01299C24.078 4.01299 26.5959 4.09167 29.1138 4.32773C26.8319 4.32773 24.5501 4.40641 22.1895 4.56378C24.314 4.79984 26.4385 5.11458 28.563 5.35064C26.8319 5.35064 25.0222 5.35064 23.2124 5.58669C24.7861 5.82275 26.3598 5.98012 27.9335 6.21618C25.9664 6.13749 23.9993 6.21618 21.9535 6.45223C23.7632 6.6096 25.6517 6.76697 27.4614 7.00303C26.2811 7.00303 25.1009 7.00303 23.9206 7.08171C25.4156 7.39645 26.8319 7.7112 28.327 8.10462C25.9664 7.86857 23.5272 7.63251 21.0879 7.39645C21.0879 7.47514 21.0879 7.63251 21.0879 7.7112C20.9305 7.7112 20.8519 7.71119 20.6945 7.63251C24.078 8.41936 26.9893 9.44227 29.1138 10.9373C29.2712 10.1504 29.5859 9.59964 29.9794 9.2849C29.9794 7.55382 29.9794 5.90143 29.9794 4.17036C29.9007 3.54088 29.5072 3.38351 29.1925 3.22614C24.5501 3.30482 19.9076 3.77693 15.1865 4.32773C15.7373 4.32773 16.2881 4.24904 16.8389 4.24904C18.4126 4.09167 19.9863 3.9343 21.56 4.01299Z" fill="#003063"/>
<path d="M21.0879 7.39643C20.9305 7.39643 20.6945 7.39643 20.5371 7.31775C20.5371 7.39643 20.6158 7.5538 20.6158 7.63249C20.7732 7.63249 20.8519 7.63249 21.0092 7.71117C21.0879 7.63249 21.0879 7.47512 21.0879 7.39643Z" fill="#003063"/>
<path d="M21.56 4.01299C20.065 3.93431 18.4126 4.09168 16.8389 4.24905C18.3339 4.17037 19.9076 4.09168 21.56 4.01299C21.56 4.09168 21.56 4.09168 21.56 4.01299Z" fill="#003063"/>
<path d="M3.69816 24.0777C4.64238 24.2351 5.58661 24.3924 6.60951 24.5498C4.95712 24.7859 3.30473 25.0219 1.65234 25.258C10.3077 24.7072 18.8057 24.4711 26.989 24.7072C26.989 24.3924 27.0677 24.0777 27.0677 23.8416C19.5139 23.6056 11.7241 23.6843 3.69816 24.0777Z" fill="#003063"/>
<path d="M11.6456 28.3267C16.8388 28.1693 21.7173 28.4841 26.2024 29.507C26.2024 28.248 26.2024 27.0677 26.1237 25.8088C19.5141 25.3367 12.5898 25.494 5.11475 26.4382C9.75718 26.4382 14.4783 26.4382 18.806 27.0677C16.5241 27.3825 14.0849 27.6972 11.6456 28.3267Z" fill="#003063"/>
<path d="M53.8996 13.6125H53.6636C53.8209 14.242 53.8209 14.7928 53.8996 15.4223C53.9783 14.8715 53.9783 14.242 53.8996 13.6125Z" fill="#003063"/>
<path d="M39.8936 22.268C39.8149 22.1106 39.7363 22.0319 39.6576 21.8745C39.7363 21.8745 39.8936 21.8745 39.9723 21.8745C39.9723 20.9303 39.9723 19.9861 39.9723 18.9632C39.4215 19.6714 38.9494 20.3008 38.556 20.9303C38.0839 21.6385 37.7691 22.1106 37.6904 22.268V22.3467H37.9265C37.8478 22.3467 37.8478 22.268 37.8478 22.1893C38.1625 22.1893 38.4773 22.1893 38.8707 22.1893C38.8707 22.268 38.9494 22.268 38.9494 22.3467H39.5002C39.5002 22.3467 39.5002 22.3467 39.5002 22.268C39.5789 22.268 39.7363 22.268 39.8936 22.268Z" fill="#003063"/>
<path d="M36.9824 0.314758C38.2414 1.33767 39.2643 2.754 39.343 5.50798C39.4217 6.76695 39.4217 8.1046 39.4217 9.36356C39.5003 9.36356 39.6577 9.28488 39.7364 9.28488H39.9725C39.9725 7.00301 39.9725 4.72113 40.0511 2.51795C42.1757 4.17034 46.4247 6.76695 49.6507 9.28488H50.3589C46.6607 5.90141 42.1756 2.91137 38.5561 0.314758H36.9824Z" fill="#003063"/>
<path d="M54.0569 22.504C54.2143 22.504 54.3716 22.504 54.6077 22.504C54.4503 20.4582 54.2143 18.4911 54.0569 16.4453C54.0569 18.019 54.0569 19.6713 53.9782 21.2451C53.9782 21.6385 53.8208 21.9532 53.1914 21.9532C48.785 21.9532 44.3786 21.9532 39.8936 21.8745C39.8936 22.0319 39.8936 22.1106 39.8936 22.268C39.9722 22.268 40.0509 22.268 40.1296 22.268H45.1655L45.0081 22.6614C47.9981 22.4253 50.9882 22.268 53.9782 22.0319C54.0569 22.1893 54.0569 22.3466 54.0569 22.504Z" fill="#003063"/>
<path d="M39.8938 22.2679H39.9725C39.9725 22.1106 39.9725 22.0319 39.9725 21.8745C39.8938 21.8745 39.7364 21.8745 39.6577 21.8745C39.7364 22.0319 39.8151 22.1893 39.8938 22.2679Z" fill="#003063"/>
<path d="M53.1126 21.4811C49.7291 20.9303 46.267 20.4582 42.8048 19.9074C45.8735 20.0648 48.8636 20.3009 51.9323 20.4582C48.1554 19.6714 44.4572 18.8845 40.6803 18.019C40.6016 18.0977 40.6016 18.0977 40.5229 18.1764C40.5229 19.1993 40.5229 20.2222 40.5229 21.3238C44.772 21.4024 48.9423 21.4811 53.1126 21.4811Z" fill="#003063"/>
<path d="M41.1526 5.90142C43.0411 7.0817 44.9295 8.1833 46.7393 9.36358H47.9983C45.7164 7.6325 43.4345 5.90142 41.1526 4.17035C41.074 4.72115 41.1526 5.27194 41.1526 5.90142Z" fill="#003063"/>
<path d="M32.4971 8.97014C32.4971 8.02591 32.6544 7.08169 32.4971 6.21615C32.261 5.11456 31.3955 4.48508 30.3726 4.24902C30.4512 5.19325 30.3726 6.76695 30.3726 8.73408C31.3168 8.6554 32.0249 8.81277 32.4971 8.97014Z" fill="#003063"/>
<path d="M33.1268 4.87851C32.1039 4.01298 30.5301 2.91138 29.1925 2.59664C29.1925 2.67533 29.1925 2.67533 29.1925 2.75401C29.0351 2.67533 28.9564 2.67533 28.7991 2.59664V2.51796C28.6417 2.51796 28.4843 2.43927 28.327 2.43927C28.1696 2.43927 28.0122 2.43927 27.8549 2.43927V2.51796C27.6975 2.51796 27.5401 2.51796 27.3827 2.51796V2.43927C26.5172 2.43927 25.7303 2.43927 24.8648 2.51796C24.7074 2.51796 24.4714 2.59664 24.314 2.59664C24.314 2.59664 24.314 2.59664 24.314 2.51796C21.324 2.75401 18.2552 3.14744 15.1865 3.93429C19.9076 2.99007 24.3927 2.75401 28.4843 2.8327C29.9007 2.8327 32.1039 4.72114 33.1268 5.74405C33.1268 5.58668 33.1268 5.42931 33.1268 5.35062C33.1268 5.11457 33.1268 5.03588 33.1268 4.87851Z" fill="#003063"/>
<path d="M33.048 1.02291C32.2612 1.33766 31.0809 1.49503 29.9006 1.6524C31.4743 1.80977 33.048 1.88845 34.307 2.20319C33.048 2.51793 31.1596 2.59662 29.4285 2.67531C31.1596 2.99005 32.8907 3.2261 34.307 4.17033C34.307 2.91136 34.307 1.6524 34.307 0.393433H32.1038C31.1596 0.550803 30.1367 0.708174 29.1138 0.865544C30.5301 0.786859 32.1038 0.708174 33.048 1.02291Z" fill="#003063"/>
<path d="M21.009 2.59664C21.1664 2.59664 21.2451 2.59664 21.4024 2.59664C21.2451 2.2819 21.009 1.88847 20.7729 1.57373C20.2221 1.65242 19.5927 1.7311 19.0419 1.80979C18.8845 1.96716 18.8058 2.12453 18.6484 2.2819C19.2779 2.20321 19.9861 2.12453 20.6156 2.04584C20.7729 2.20321 20.9303 2.43927 21.009 2.59664Z" fill="#003063"/>
<path d="M23.8417 2.36057C23.999 2.36057 24.1564 2.36057 24.2351 2.36057C23.999 1.96714 23.763 1.6524 23.5269 1.25897C22.8974 1.33766 22.268 1.41634 21.7172 1.49503C21.5598 1.6524 21.4811 1.80977 21.3237 1.96714C22.0319 1.88845 22.6614 1.80977 23.3695 1.73108C23.6056 1.96714 23.763 2.2032 23.8417 2.36057Z" fill="#003063"/>
<path d="M24.9434 2.59664C25.1795 2.04584 25.3369 1.57373 25.5729 1.02294C26.2024 0.944251 26.8319 0.944251 27.4614 0.865566C27.4614 1.41636 27.4614 1.88847 27.3827 2.43927C27.5401 2.43927 27.6974 2.43927 27.8548 2.43927C27.8548 2.04584 27.8548 1.65242 27.9335 1.18031C28.2482 1.41636 28.4843 1.65242 28.799 1.96716C28.799 2.12453 28.799 2.2819 28.799 2.43927C28.9564 2.43927 29.0351 2.51796 29.1925 2.51796C29.1925 2.2819 29.1925 2.04584 29.1138 1.80979C28.7203 1.25899 28.2482 0.786881 27.8548 0.236084C27.068 0.236084 26.2811 0.314769 25.4156 0.314769C25.0221 1.02294 24.7074 1.80979 24.314 2.51796C24.55 2.59664 24.7861 2.59664 24.9434 2.59664Z" fill="#003063"/>
<path d="M27.4614 2.59663C27.6188 2.59663 27.7762 2.59663 27.9335 2.59663V2.51794C27.7762 2.51794 27.6188 2.51794 27.4614 2.59663C27.4614 2.51794 27.4614 2.51794 27.4614 2.59663Z" fill="#003063"/>
<path d="M28.8774 2.59663C29.0348 2.67531 29.1135 2.67531 29.2709 2.754C29.2709 2.67531 29.2709 2.67531 29.2709 2.59663C29.1135 2.59663 29.0348 2.51794 28.8774 2.51794C28.8774 2.59663 28.8774 2.59663 28.8774 2.59663Z" fill="#003063"/>
<path d="M24.9434 2.59662C24.786 2.59662 24.5499 2.59662 24.3926 2.59662C24.3926 2.59662 24.3926 2.59662 24.3926 2.6753C24.5499 2.6753 24.7073 2.59662 24.9434 2.59662Z" fill="#003063"/>
<path d="M39.7362 27.4612C39.9722 27.6185 40.1296 27.7759 40.3656 28.012C37.9264 28.3267 35.4872 28.7201 33.0479 29.0349C33.0479 28.7988 33.0479 28.5628 33.0479 28.3267C32.9692 28.3267 32.8906 28.3267 32.8119 28.3267C32.9692 27.8546 33.0479 27.3825 33.2053 26.8317C33.2053 26.5169 33.284 26.2022 33.284 25.8088C33.284 25.0219 33.2053 24.2351 33.1266 23.5269C33.1266 23.6056 33.1266 23.6056 33.1266 23.6843C33.1266 23.5269 33.1266 23.3695 33.1266 23.2122C32.7332 20.1434 31.5529 17.9402 30.1366 17.9402C28.6415 17.9402 27.4613 20.3795 27.0678 23.6843C27.3039 23.6843 27.4613 23.6843 27.6973 23.6843C27.6186 23.999 27.6186 24.2351 27.54 24.5498C27.3039 24.5498 27.1465 24.5498 26.9105 24.5498C26.9105 24.9432 26.8318 25.3367 26.8318 25.7301C26.8318 27.1464 26.9892 28.4841 27.2252 29.6643C18.5698 29.9004 9.91446 30.1365 1.33776 30.2151C7.08179 30.7659 12.9045 31.1594 18.8846 31.0807C14.7143 31.3167 10.5439 31.5528 6.37362 31.7889C11.016 32.1823 15.8945 32.261 21.0091 31.9462C16.7601 32.3396 12.5111 32.6544 8.26207 32.9691C9.99314 33.0478 11.7242 33.2052 13.4553 33.2839C10.6226 33.4412 7.78995 33.5986 4.95728 33.756C10.6226 34.2281 16.3666 34.2281 22.1894 33.9134C14.1635 34.5428 8.97023 34.3855 0.944336 34.8576C5.98019 35.0936 10.3079 35.4871 14.7143 35.5657H21.3238C23.2909 35.4871 25.3368 35.4084 27.54 35.1723C30.0579 34.9363 32.4971 33.992 35.0937 32.8118C42.3328 29.5857 49.4145 27.2251 56.4961 24.7859L56.8109 24.0777C56.6535 24.0777 56.4961 24.1564 56.3388 24.1564C56.4961 24.0777 56.6535 23.999 56.8109 23.9203L57.0469 23.2908C56.6535 23.2908 56.2601 23.2908 55.8666 23.3695C56.3388 23.2122 56.8109 23.0548 57.2043 22.8974C56.1027 23.0548 55.0798 23.1335 53.9782 23.2908C53.9782 22.9761 53.9782 22.74 53.9782 22.4253C53.6635 22.4253 53.3487 22.4253 53.034 22.504C53.27 22.5827 53.4274 23.2122 53.3487 23.999C53.27 24.7859 53.034 25.4153 52.7979 25.4153C52.5619 25.4153 52.4045 24.7072 52.4045 23.9203C52.4832 23.1335 52.6406 22.5827 52.8766 22.504C50.2013 22.6614 47.526 22.8187 44.8507 22.9761L44.6147 23.6843C44.772 24.1564 44.9294 24.8645 44.8507 25.7301C44.772 27.0677 44.3786 28.1693 43.9852 28.0906C43.6704 28.0906 43.4344 27.4612 43.3557 26.5956H40.3656C40.2083 26.8317 40.0509 27.1464 39.8149 27.3825C39.8935 27.4612 39.8149 27.4612 39.7362 27.4612ZM31.8676 25.9661C31.7103 28.7201 30.9234 30.8446 30.0579 30.7659C29.1923 30.6873 28.6415 28.4054 28.7989 25.6514C28.9563 22.8974 29.7431 20.7729 30.6087 20.8516C31.4742 21.009 32.025 23.2908 31.8676 25.9661ZM51.539 22.6614C51.8537 22.6614 52.0111 23.4482 51.9324 24.3924C51.8537 25.3367 51.6176 26.0448 51.3029 26.0448C50.9882 26.0448 50.8308 25.258 50.9095 24.3138C50.9882 23.3695 51.2242 22.6614 51.539 22.6614ZM46.6605 22.9761C47.0539 22.9761 47.29 23.999 47.2113 25.1793C47.1326 26.3596 46.8178 27.3038 46.4244 27.3038C46.031 27.3038 45.7949 26.2809 45.8736 25.1006C45.9523 23.9203 46.267 22.9761 46.6605 22.9761Z" fill="#003063"/>
<path d="M27.5401 24.6285C27.6187 24.3138 27.6187 24.0777 27.6974 23.763C27.4614 23.763 27.304 23.763 27.0679 23.763C27.0679 24.0777 26.9893 24.3138 26.9893 24.6285C27.1466 24.6285 27.3827 24.6285 27.5401 24.6285Z" fill="#003063"/>
<path d="M53.1129 22.504C53.4276 22.504 53.7424 22.504 54.0571 22.504C54.0571 22.3467 54.0571 22.1893 54.0571 22.1106C51.0671 22.3467 48.077 22.504 45.087 22.7401L45.0083 23.0548C47.6836 22.8188 50.3589 22.6614 53.1129 22.504C53.0342 22.504 53.0342 22.504 53.1129 22.504Z" fill="#003063"/>
<path d="M30.766 28.1693C30.3726 28.1693 30.1366 26.989 30.2153 25.6514C30.2939 24.3137 30.6874 23.2122 31.0021 23.2122C31.1595 23.2122 31.3168 23.4482 31.3955 23.8416C31.2382 22.8974 31.0021 22.2679 30.6874 22.1892C30.1366 22.1106 29.6645 23.6056 29.5071 25.494C29.4284 27.3825 29.7431 28.9562 30.2939 28.9562C30.6087 28.9562 30.9234 28.4054 31.1595 27.4612C31.0808 27.9333 30.9234 28.1693 30.766 28.1693Z" fill="#003063"/>
<path d="M29.4286 25.4941C29.3499 25.4154 29.1925 25.3367 29.1138 25.258C29.1138 25.8875 29.1138 26.517 29.0352 27.1464C29.1138 27.0678 29.2712 27.0678 29.3499 26.9891C29.4286 26.517 29.4286 25.9662 29.4286 25.4941Z" fill="#003063"/>
<path d="M30.1368 22.268C30.0581 22.1106 30.0581 21.8745 29.9794 21.7172C29.8221 22.1106 29.6647 22.504 29.5073 22.9761C29.586 23.0548 29.7434 23.0548 29.8221 23.1335C29.9007 22.7401 30.0581 22.504 30.1368 22.268Z" fill="#003063"/>
<path d="M31.5531 22.6614C31.4744 22.3466 31.3957 22.0319 31.317 21.7172C31.2384 21.9532 31.2384 22.1893 31.1597 22.3466C31.2384 22.5827 31.317 22.7401 31.4744 22.9761C31.4744 22.8974 31.4744 22.8188 31.5531 22.6614Z" fill="#003063"/>
<path d="M31.8678 24.6285C31.7891 24.7072 31.7891 24.7072 31.7104 24.7859C31.7104 25.1793 31.7104 25.4941 31.7104 25.8875H31.7891C31.7891 25.4154 31.8678 25.022 31.8678 24.6285Z" fill="#003063"/>
<path d="M31.2383 28.012C31.317 28.1694 31.317 28.3267 31.3957 28.5628C31.4743 28.248 31.553 28.012 31.6317 27.6973C31.553 27.5399 31.4743 27.4612 31.4743 27.3825C31.3957 27.5399 31.317 27.7759 31.2383 28.012Z" fill="#003063"/>
<path d="M30.4512 29.507C30.4512 29.7431 30.5299 30.0578 30.5299 30.2939C30.6872 30.0578 30.8446 29.9004 31.002 29.6644C31.002 29.507 30.9233 29.3496 30.8446 29.1923C30.6872 29.3496 30.6085 29.4283 30.4512 29.507Z" fill="#003063"/>
<path d="M29.3496 29.271C29.4283 29.507 29.5857 29.8218 29.6644 30.0578C29.743 29.7431 29.743 29.507 29.8217 29.1923C29.743 29.0349 29.6643 28.8775 29.5857 28.6415C29.507 28.8775 29.4283 29.0349 29.3496 29.271Z" fill="#003063"/>
<path d="M44.7722 24.6285C44.7722 24.3924 44.6935 24.2351 44.6148 24.1564L44.5361 24.3924C44.6148 24.3924 44.6935 24.4711 44.7722 24.6285Z" fill="#003063"/>
<path d="M44.2211 27.2251C44.3785 27.2251 44.5359 26.9891 44.6146 26.517C44.5359 26.6743 44.4572 26.753 44.3785 26.753C44.2211 26.753 44.0638 26.2022 44.0638 25.494C44.0638 25.4154 44.0638 25.4154 44.0638 25.3367L43.749 26.2022C43.9064 26.8317 44.0638 27.2251 44.2211 27.2251Z" fill="#003063"/>
<path d="M44.8507 24.0777C44.8507 23.9991 44.772 23.8417 44.772 23.763L44.6934 23.9991C44.6934 24.0777 44.772 24.1564 44.772 24.2351C44.772 24.2351 44.772 24.1564 44.8507 24.0777Z" fill="#003063"/>
<path d="M45.0079 25.1006C44.9292 25.1006 44.9292 25.1006 45.0079 25.1006C44.9292 25.3367 44.9292 25.4941 44.9292 25.7301C44.9292 25.7301 44.9292 25.7301 45.0079 25.7301C44.9292 25.4941 44.9292 25.258 45.0079 25.1006Z" fill="#003063"/>
<path d="M44.8507 26.517C44.8507 26.4383 44.772 26.4383 44.772 26.3596C44.772 26.4383 44.6934 26.5957 44.6934 26.6744C44.6934 26.753 44.772 26.8317 44.772 26.9104C44.772 26.8317 44.8507 26.6744 44.8507 26.517Z" fill="#003063"/>
<path d="M44.5359 27.6186C44.5359 27.5399 44.4572 27.4612 44.4572 27.3825C44.3785 27.4612 44.2998 27.4612 44.2998 27.5399C44.2998 27.6972 44.2998 27.7759 44.2998 27.9333C44.3785 27.7759 44.4572 27.6972 44.5359 27.6186Z" fill="#003063"/>
<path d="M43.9852 27.3825C43.9065 27.3038 43.9065 27.2251 43.8278 27.1464C43.7491 27.2251 43.7491 27.3038 43.6704 27.4612C43.7491 27.6185 43.7491 27.6972 43.8278 27.8546C43.9065 27.6185 43.9852 27.4612 43.9852 27.3825Z" fill="#003063"/>
<path d="M51.3816 25.4154C51.4603 25.4154 51.6176 25.258 51.6963 24.9432C51.6176 25.0219 51.6177 25.1006 51.539 25.1006C51.3816 25.1006 51.3029 24.7072 51.3816 24.2351C51.3816 23.763 51.539 23.4482 51.6963 23.4482C51.775 23.4482 51.775 23.5269 51.8537 23.6056C51.775 23.2909 51.6963 23.1335 51.6177 23.1335C51.4603 23.1335 51.3029 23.6056 51.2242 24.2351C51.1455 24.8646 51.2242 25.4154 51.3816 25.4154Z" fill="#003063"/>
<path d="M51.1456 24.1564L51.0669 24.0777C51.0669 24.3138 51.0669 24.4711 51.0669 24.7072C51.0669 24.7072 51.1456 24.7072 51.1456 24.6285C51.1456 24.5498 51.1456 24.3924 51.1456 24.1564Z" fill="#003063"/>
<path d="M51.3816 23.1335C51.3816 23.0548 51.3816 22.9761 51.3029 22.8975C51.2242 23.0548 51.2242 23.1335 51.1455 23.2909C51.1455 23.2909 51.2242 23.2909 51.2242 23.3696C51.3029 23.2909 51.3029 23.2122 51.3816 23.1335Z" fill="#003063"/>
<path d="M51.8537 23.2909C51.8537 23.2122 51.775 23.0548 51.775 22.9761C51.775 23.0548 51.775 23.1335 51.6963 23.2122C51.6963 23.2909 51.775 23.3696 51.775 23.4482C51.775 23.2909 51.775 23.2909 51.8537 23.2909Z" fill="#003063"/>
<path d="M51.9322 23.9203C51.8535 24.0777 51.8535 24.2351 51.8535 24.3138C51.9322 24.1564 51.9322 24.0777 51.9322 23.9203Z" fill="#003063"/>
<path d="M51.6963 25.0219C51.6963 25.1006 51.6963 25.1006 51.775 25.1793C51.775 25.1006 51.8537 24.9433 51.8537 24.8646C51.8537 24.8646 51.8537 24.7859 51.775 24.7859C51.775 24.8646 51.775 24.9433 51.6963 25.0219Z" fill="#003063"/>
<path d="M51.4604 25.5727C51.4604 25.6514 51.4604 25.7301 51.4604 25.8088C51.5391 25.7301 51.5391 25.6514 51.6178 25.5727C51.6178 25.494 51.6178 25.494 51.5391 25.4153C51.5391 25.494 51.5391 25.494 51.4604 25.5727Z" fill="#003063"/>
<path d="M51.3029 25.4154C51.3029 25.3367 51.2242 25.3367 51.2242 25.258C51.2242 25.3367 51.1455 25.4154 51.1455 25.4154C51.1455 25.4941 51.2242 25.5727 51.2242 25.6514C51.2242 25.6514 51.2242 25.5727 51.3029 25.4154Z" fill="#003063"/>
<path d="M46.503 26.517C46.6604 26.517 46.7391 26.2809 46.8964 25.8875C46.8178 26.0448 46.7391 26.1235 46.7391 26.1235C46.5817 26.1235 46.4243 25.6514 46.503 25.0219C46.503 24.3925 46.6604 23.9203 46.8964 23.999C46.9751 23.999 47.0538 24.0777 47.0538 24.2351C46.9751 23.8417 46.8964 23.6056 46.7391 23.5269C46.503 23.5269 46.267 24.1564 46.267 25.0219C46.1096 25.8875 46.267 26.517 46.503 26.517Z" fill="#003063"/>
<path d="M46.1095 25.0219C46.0308 25.0219 46.0308 24.9432 45.9521 24.9432C45.9521 25.258 45.9521 25.494 45.9521 25.8088C46.0308 25.8088 46.0308 25.7301 46.1095 25.7301C46.1095 25.4153 46.1095 25.1793 46.1095 25.0219Z" fill="#003063"/>
<path d="M46.4246 23.6056C46.4246 23.5269 46.3459 23.4483 46.3459 23.3696C46.2672 23.5269 46.1885 23.763 46.1099 23.9204C46.1885 23.9204 46.1885 23.9204 46.2672 23.9991C46.3459 23.763 46.4246 23.6843 46.4246 23.6056Z" fill="#003063"/>
<path d="M47.0539 23.763C47.0539 23.6056 46.9752 23.4483 46.8966 23.3696C46.8966 23.4483 46.8179 23.5269 46.8179 23.6843C46.8966 23.763 46.8966 23.8417 46.9752 23.9991C47.0539 23.8417 47.0539 23.8417 47.0539 23.763Z" fill="#003063"/>
<path d="M47.2115 24.6285C47.2115 24.6285 47.1328 24.6285 47.2115 24.6285C47.1328 24.8646 47.1328 25.022 47.1328 25.1793C47.1328 25.1793 47.1328 25.1793 47.2115 25.1793C47.2115 24.9433 47.2115 24.7859 47.2115 24.6285Z" fill="#003063"/>
<path d="M46.8965 26.0448C46.8965 26.1235 46.9752 26.2022 46.9752 26.2809C46.9752 26.1235 47.0539 26.0448 47.0539 25.8875C47.0539 25.8088 46.9752 25.8088 46.9752 25.7301C46.9752 25.8875 46.9752 25.9662 46.8965 26.0448Z" fill="#003063"/>
<path d="M46.5815 26.753C46.5815 26.9104 46.5815 26.9891 46.5815 27.1464C46.6602 27.0677 46.7389 26.9891 46.7389 26.9104C46.7389 26.8317 46.7389 26.753 46.6602 26.6743C46.6602 26.6743 46.6602 26.6743 46.5815 26.753Z" fill="#003063"/>
<path d="M46.3458 26.5957C46.3458 26.517 46.2672 26.4383 46.2672 26.3596C46.2672 26.4383 46.1885 26.517 46.1885 26.5957C46.2672 26.753 46.2672 26.8317 46.3458 26.9891C46.2672 26.9104 46.3458 26.753 46.3458 26.5957Z" fill="#003063"/>
<path d="M52.7192 23.8417C52.7192 24.3925 52.7979 24.8646 52.9553 24.8646C53.034 24.8646 53.1127 24.7072 53.1913 24.4712C53.1913 24.5499 53.1127 24.6285 53.034 24.6285C52.9553 24.6285 52.8766 24.3138 52.8766 23.9204C52.8766 23.5269 53.034 23.2122 53.1127 23.2122C53.1914 23.2122 53.1913 23.2909 53.1913 23.3696C53.1913 23.1335 53.1127 22.8975 52.9553 22.8975C52.9553 22.8975 52.7979 23.2909 52.7192 23.8417Z" fill="#003063"/>
<path d="M52.7193 23.8417L52.6406 23.763C52.6406 23.9204 52.6406 24.1564 52.6406 24.3138C52.6406 24.3138 52.7193 24.3138 52.7193 24.2351C52.7193 24.1564 52.7193 23.9991 52.7193 23.8417Z" fill="#003063"/>
<path d="M52.9553 22.8974C52.9553 22.8187 52.9553 22.8187 52.8766 22.7401C52.7979 22.8974 52.7979 22.9761 52.7192 23.1335H52.7979C52.8766 23.0548 52.8766 22.9761 52.9553 22.8974Z" fill="#003063"/>
<path d="M53.3488 23.0548C53.3488 22.9761 53.2701 22.8974 53.2701 22.7401C53.2701 22.8187 53.2701 22.8974 53.1914 22.8974C53.1914 22.9761 53.2701 23.0548 53.2701 23.0548C53.3488 23.0548 53.3488 23.0548 53.3488 23.0548Z" fill="#003063"/>
<path d="M53.4273 23.6056C53.4273 23.763 53.3486 23.8416 53.3486 23.999C53.4273 23.8416 53.4273 23.6843 53.4273 23.6056Z" fill="#003063"/>
<path d="M53.27 24.6285C53.27 24.7072 53.27 24.7072 53.3487 24.7859C53.3487 24.7072 53.4274 24.6285 53.4274 24.5498C53.4274 24.5498 53.4274 24.4711 53.3487 24.4711C53.27 24.4711 53.27 24.5498 53.27 24.6285Z" fill="#003063"/>
<path d="M53.0342 25.0219C53.0342 25.1006 53.0342 25.1793 53.0342 25.258C53.1129 25.1793 53.1129 25.1006 53.1915 25.1006C53.1915 25.0219 53.1915 25.0219 53.1915 24.9432C53.1129 25.0219 53.0342 25.0219 53.0342 25.0219Z" fill="#003063"/>
<path d="M52.7192 24.9433C52.7192 25.0219 52.7979 25.1006 52.7979 25.1793C52.7979 25.1006 52.7979 25.0219 52.8766 24.9433C52.8766 24.8646 52.7979 24.8646 52.7979 24.7859C52.7192 24.8646 52.7192 24.9433 52.7192 24.9433Z" fill="#003063"/>
<path d="M33.7561 21.9532C33.6774 21.9532 33.5987 21.9532 33.52 21.9532C33.6774 22.1106 33.9134 22.1892 34.0708 22.3466C33.9921 22.2679 33.9921 22.1892 33.9134 22.1106C33.8348 22.1106 33.7561 22.0319 33.6774 22.0319C33.6774 21.9532 33.6774 21.9532 33.7561 21.9532Z" fill="#003063"/>
<path d="M35.0937 26.753C35.0937 25.1006 34.4643 24.1564 33.6774 23.4482C33.5987 24.6285 33.4413 25.8088 33.1266 26.9104C33.1266 27.3825 33.0479 27.9333 32.9692 28.3267C35.1724 28.0907 37.3756 27.7759 39.5788 27.5399C39.4214 27.4612 39.3427 27.3038 39.1854 27.2251C39.2641 27.0678 39.4214 26.9104 39.5001 26.6743C39.4214 26.6743 39.3427 26.6743 39.2641 26.6743C39.2641 26.753 39.1854 26.753 39.1854 26.8317C39.1854 26.753 39.1854 26.753 39.1854 26.6743C38.9493 26.6743 38.7133 26.5957 38.4772 26.517C38.3985 26.6743 38.3985 26.8317 38.3198 27.0678C38.0838 27.0678 37.8477 27.0678 37.533 27.1464C37.6904 26.8317 37.6904 26.5957 37.769 26.2809C37.533 26.2022 37.2969 26.1235 37.0609 25.9662C36.9822 26.3596 36.8248 26.8317 36.6674 27.3038C36.3527 27.3038 35.9593 27.3038 35.6445 27.3825C36.038 26.6743 36.1953 25.9662 36.1953 25.3367C35.8019 25.0219 35.4085 24.7072 35.0937 24.3138C35.4872 24.7859 35.4872 25.6514 35.0937 26.753Z" fill="#003063"/>
<path d="M39.4214 22.2679C39.5001 22.2679 39.5001 22.2679 39.4214 22.2679L39.8148 22.3466C39.7361 22.2679 39.5788 22.2679 39.4214 22.2679Z" fill="#003063"/>
<path d="M37.8477 22.1893C37.9263 22.1893 37.9263 22.268 37.9263 22.3466H38.8706C38.8706 22.268 38.8706 22.268 38.7919 22.1893C38.5558 22.1893 38.1624 22.1893 37.8477 22.1893Z" fill="#003063"/>
<path d="M39.9722 22.3466H40.2082C40.1295 22.3466 40.0509 22.2679 39.9722 22.3466C39.9722 22.3466 39.9722 22.2679 39.9722 22.3466Z" fill="#003063"/>
<path d="M39.8936 22.2679C39.8936 22.2679 39.8936 22.3466 39.8936 22.2679H39.9722C39.8936 22.2679 39.8936 22.2679 39.8936 22.2679Z" fill="#003063"/>
<path d="M39.7362 27.4612C39.8149 27.4612 39.8936 27.4612 39.9723 27.4612C40.2083 27.2251 40.3657 26.9104 40.5231 26.6743H39.8149C39.7362 26.6743 39.7362 26.6743 39.6575 26.6743C39.5788 26.8317 39.4215 26.9891 39.3428 27.2251C39.4215 27.2251 39.5788 27.3825 39.7362 27.4612Z" fill="#003063"/>
<path d="M33.0481 28.3267C33.1268 27.8546 33.1268 27.3825 33.2054 26.9104C33.1268 27.3825 32.9694 27.9333 32.812 28.4054C32.8907 28.3267 32.9694 28.3267 33.0481 28.3267Z" fill="#003063"/>
<path d="M34.5431 12.8257C34.6218 12.747 34.6218 12.747 34.7005 12.6684C34.6218 12.6684 34.5431 12.5897 34.5431 12.511C34.4644 12.4323 34.3857 12.2749 34.3857 12.1176C34.3857 12.4323 34.3857 12.747 34.3857 13.1405C34.3857 13.0618 34.4644 12.9831 34.5431 12.8257Z" fill="#003063"/>
<path d="M34.9365 10.7012C35.1726 10.4652 35.4087 10.0718 35.566 9.44227C35.566 8.18331 35.6447 6.92434 35.4873 5.66538C35.4086 5.19327 35.0939 4.79984 34.7792 4.64247C34.7005 4.64247 34.7005 4.64247 34.6218 4.64247C34.6218 4.79984 34.6218 5.0359 34.6218 5.19327C34.4644 5.11458 34.3857 5.0359 34.2284 4.87853C34.2284 4.72116 34.2284 4.64247 34.2284 4.4851C33.9923 4.40642 33.6776 4.40642 33.4415 4.4851C33.2841 4.4851 33.2055 4.64247 33.1268 4.87853L33.2055 4.95721C33.1268 5.19327 33.1268 5.42932 33.1268 5.74406C33.1268 7.00303 33.1268 8.41936 33.1268 9.59964C32.1826 9.20622 31.2383 8.97016 30.3728 9.20622C30.1367 9.67833 29.822 10.1504 29.5859 10.6226C29.5859 12.4323 29.5859 13.9273 29.5859 15.7371C29.5859 15.8158 29.5859 15.8945 29.5859 16.0518C29.7433 16.0518 29.822 16.1305 29.9794 16.1305C29.9794 14.3994 29.9794 12.5897 29.9794 10.8586C30.2154 10.4652 30.4515 9.99307 30.6875 9.59964C30.6875 9.59964 31.8678 9.52096 32.9694 10.0718C33.5202 10.3865 34.3857 11.4094 34.3857 11.4094C34.3857 11.4881 34.3857 11.7241 34.3857 11.8815C34.3857 11.7241 34.4644 11.5668 34.5431 11.4881C34.7005 11.3307 34.8579 11.252 35.0152 11.252C35.0939 11.252 35.1726 11.252 35.2513 11.252C35.0152 11.016 34.8579 10.9373 34.9365 10.7012ZM34.7792 9.91438C34.7005 10.5439 34.3857 10.7012 34.1497 10.5439C34.071 10.2291 33.9136 9.99307 33.7563 9.75701C33.7563 8.41936 33.6776 6.84566 33.7563 5.50801C33.7563 5.19327 33.9923 5.11458 34.1497 5.19327C34.6218 5.66538 34.8579 6.21618 34.8579 6.84566C34.9365 7.78988 34.8579 8.89148 34.7792 9.91438Z" fill="#003063"/>
<path d="M33.2838 4.95723L33.2052 4.87854C33.2052 4.95723 33.1265 5.1146 33.1265 5.27197C33.1265 5.42934 33.1265 5.58671 33.1265 5.66539C33.2052 5.50802 33.2052 5.27197 33.2838 4.95723Z" fill="#003063"/>
<path d="M33.6772 21.9532C33.7559 21.9532 33.8346 22.0319 33.9133 22.0319V21.9532H33.8346C33.6772 21.9532 33.6772 21.9532 33.6772 21.9532Z" fill="#003063"/>
<path d="M35.8018 11.0947C35.6444 11.0947 35.4083 11.0947 35.251 11.0947C35.487 11.1734 35.7231 11.252 36.0378 11.252L36.1165 11.1734C36.0378 11.1734 36.0378 11.1734 35.9591 11.1734C35.9591 11.0947 35.8805 11.0947 35.8018 11.0947Z" fill="#003063"/>
<path d="M35.0152 11.0947C34.8579 11.0947 34.6218 11.1734 34.5431 11.3307C34.4644 11.4094 34.3857 11.5668 34.3857 11.7241C34.3857 11.8028 34.3857 11.9602 34.3857 12.1176C34.3857 12.2749 34.4644 12.4323 34.5431 12.511C34.6218 12.5897 34.6218 12.5897 34.7005 12.6684C34.7792 12.5897 34.8579 12.5897 34.9365 12.5897C34.9365 12.5897 34.9365 12.511 35.0152 12.511C34.8579 12.511 34.7792 12.511 34.6218 12.511C34.6218 12.1176 34.6218 11.7241 34.6218 11.3307C35.0939 11.3307 35.4873 11.3307 35.9594 11.3307L36.0381 11.252C35.8021 11.252 35.4873 11.1734 35.2513 11.0947C35.1726 11.0947 35.0939 11.0947 35.0152 11.0947Z" fill="#003063"/>
<path d="M34.543 12.5897C34.7004 12.5897 34.7791 12.5897 34.9365 12.5897C34.9365 12.511 35.0152 12.511 35.0152 12.4323C35.0152 12.4323 35.0152 12.4323 34.9365 12.4323C34.8578 12.4323 34.7791 12.3536 34.7004 12.3536C34.6217 12.275 34.6217 12.1963 34.6217 12.1176C34.6217 12.0389 34.6217 12.0389 34.6217 11.9602C34.6217 11.8815 34.6217 11.7242 34.7004 11.7242C34.7791 11.6455 34.8578 11.6455 34.9365 11.6455C35.1725 11.6455 35.4086 11.6455 35.6446 11.6455C35.7233 11.5668 35.7233 11.5668 35.802 11.4881C35.3299 11.4881 34.9365 11.4881 34.4644 11.4881C34.543 11.8028 34.543 12.1963 34.543 12.5897Z" fill="#003063"/>
<path d="M34.5431 12.8257C34.4644 12.9044 34.3857 13.0618 34.3857 13.2191C34.3857 13.2978 34.3857 13.4552 34.3857 13.5339V13.4552C34.4644 13.2978 34.5431 13.2191 34.6218 13.0618C34.6218 12.9831 34.6218 12.9831 34.6218 12.9044H34.7005C34.7005 12.8257 34.7792 12.8257 34.7792 12.747C34.7005 12.747 34.7005 12.747 34.6218 12.6683C34.6218 12.747 34.5431 12.8257 34.5431 12.8257Z" fill="#003063"/>
<path d="M34.8576 12.747C34.8576 12.6683 34.9363 12.6683 34.9363 12.5897C34.8576 12.5897 34.7789 12.5897 34.7002 12.6683C34.7789 12.747 34.7789 12.747 34.8576 12.747Z" fill="#003063"/>
<path d="M34.6216 13.0618C34.6216 12.9831 34.7003 12.9831 34.7003 12.9044H34.6216C34.6216 12.9831 34.6216 13.0618 34.6216 13.0618Z" fill="#003063"/>
<path d="M35.8018 0.314758C35.8018 3.93428 35.8018 7.5538 35.8018 11.0946H35.8804C35.8804 11.0946 35.8804 11.0946 35.9591 11.0946C36.0378 11.0946 36.0378 11.0946 36.1165 11.0946L36.1952 11.016C36.1952 7.39643 36.1952 3.85559 36.1952 0.314758H35.8018V0.314758Z" fill="#003063"/>
<path d="M34.3066 4.09165C34.3066 4.24902 34.3066 4.40639 34.3066 4.56376C34.464 4.56376 34.5427 4.64245 34.7001 4.64245C34.7001 3.22611 34.7001 1.80978 34.7001 0.314758H34.6214C34.6214 1.65241 34.7001 2.91137 34.7001 4.24902C34.5427 4.17034 34.3853 4.17034 34.3066 4.09165Z" fill="#003063"/>
<path d="M34.6214 4.24902C34.6214 2.91137 34.5427 1.65241 34.5427 0.314758H34.3066C34.3066 1.57372 34.3066 2.83269 34.3066 4.09165C34.3853 4.17034 34.5427 4.17034 34.6214 4.24902Z" fill="#003063"/>
<path d="M34.6215 5.11459C34.6215 4.95722 34.6215 4.72116 34.6215 4.56379C34.4641 4.56379 34.3854 4.48511 34.228 4.48511C34.228 4.64248 34.228 4.72116 34.228 4.87853C34.3854 4.95722 34.5428 5.0359 34.6215 5.11459Z" fill="#003063"/>
<path d="M46.5819 28.1694C46.5032 28.3267 34.7791 31.7102 29.1138 33.2839C30.7662 34.0707 32.4972 34.6215 34.4644 34.9363C36.9823 35.4084 39.7363 35.6445 42.4903 35.6445H52.4046L56.4962 24.7859L53.1128 25.8088C53.1915 25.8088 46.6606 27.9333 46.5819 28.1694Z" fill="#003063"/>
<path d="M52.4045 34.0707H22.8188V35.6444H52.4045V34.0707Z" fill="#003063"/>
<path d="M99.3796 7.00301C99.2222 6.45221 99.0648 5.82273 98.9075 5.03587C98.6714 4.24902 98.4353 3.54085 98.1993 2.83269C97.9632 2.12452 97.6485 1.49504 97.2551 1.02293C96.8616 0.550814 96.4682 0.314758 95.9961 0.314758H84.8228C84.5081 0.314758 84.1146 0.472129 83.6425 0.78687C83.1704 1.10161 82.6983 1.49504 82.2262 1.88846C81.7541 2.28189 81.3606 2.754 80.8885 3.22611C80.4951 3.69822 80.2591 4.01297 80.1017 4.32771L56.1027 35.015V35.251C56.1027 35.1723 56.024 35.3297 55.9453 35.7231H84.1933C84.5081 35.5658 84.9802 35.1723 85.6883 34.4642C86.3178 33.756 87.026 32.9691 87.7342 32.1036C88.4423 31.2381 89.0718 30.4512 89.6226 29.6644C90.1734 28.8775 90.4881 28.4054 90.5668 28.0907L91.9832 35.6444H103.865L99.3796 7.00301ZM76.9543 26.753V26.1235L88.1276 11.016L90.4881 26.6743H76.9543V26.753Z" fill="#003063"/>
<path d="M156.741 7.08169C156.505 5.9801 156.19 4.8785 155.639 3.8556C155.167 2.83269 154.459 2.04583 153.594 1.33767C152.728 0.629499 151.626 0.314758 150.289 0.314758H119.68L106.776 35.6444H119.602L124.323 22.8187H143.05C144.545 22.8187 146.119 22.504 147.771 21.8745C149.423 21.245 150.918 20.3795 152.335 19.2779C153.751 18.1763 154.853 16.8387 155.718 15.265C156.584 13.6913 157.056 11.9602 157.056 10.1504C157.056 9.20619 156.977 8.18329 156.741 7.08169ZM144.23 11.4881C144.151 11.6454 144.073 11.8028 143.915 12.0389C143.758 12.2749 143.601 12.511 143.443 12.8257C143.286 13.0618 143.128 13.2978 142.971 13.5339C142.814 13.7699 142.735 13.8486 142.656 13.8486H131.955L125.582 19.514L129.28 9.36356H142.971C143.05 9.36356 143.286 9.52093 143.601 9.91436C143.915 10.3078 144.151 10.6225 144.309 10.7799C144.387 10.9373 144.387 11.0946 144.466 11.0946L144.23 11.4881Z" fill="#003063"/>
</g>
<defs>
<clipPath id="clip0">
<rect width="158" height="50.9094" fill="white"/>
</clipPath>
</defs>
</svg>
